<?xml version="1.0" encoding="UTF-8" standalone="no"?>
<svg
   xmlns:osb="http://www.openswatchbook.org/uri/2009/osb"
   xmlns:dc="http://purl.org/dc/elements/1.1/"
   xmlns:cc="http://creativecommons.org/ns#"
   xmlns:rdf="http://www.w3.org/1999/02/22-rdf-syntax-ns#"
   xmlns:svg="http://www.w3.org/2000/svg"
   xmlns="http://www.w3.org/2000/svg"
   xmlns:xlink="http://www.w3.org/1999/xlink"
   xmlns:sodipodi="http://sodipodi.sourceforge.net/DTD/sodipodi-0.dtd"
   xmlns:inkscape="http://www.inkscape.org/namespaces/inkscape"
   sodipodi:docname="ecuality192.svg"
   inkscape:version="1.0 (4035a4fb49, 2020-05-01)"
   width="192.0px"
   height="192.0px"
   viewBox="0 0 192.0 192.0"
   version="1.1"
   id="SVGRoot">
  <defs
     id="defs1332">
    <linearGradient
       inkscape:collect="always"
       xlink:href="#linearGradient1215"
       id="linearGradient1837"
       gradientUnits="userSpaceOnUse"
       gradientTransform="matrix(0.14468122,-0.01675668,0.01675668,0.14468122,224.52687,62.268901)"
       x1="-420.44836"
       y1="84.203293"
       x2="-241.91254"
       y2="84.203293" />
    <linearGradient
       id="linearGradient1215"
       osb:paint="solid">
      <stop
         style="stop-color:#02979d;stop-opacity:1;"
         offset="0"
         id="stop1213" />
    </linearGradient>
    <linearGradient
       gradientUnits="userSpaceOnUse"
       y2="79.954849"
       x2="190.97668"
       y1="79.954849"
       x1="165.06886"
       id="linearGradient1424"
       xlink:href="#linearGradient1422"
       inkscape:collect="always" />
    <linearGradient
       osb:paint="solid"
       id="linearGradient1422">
      <stop
         id="stop1420"
         offset="0"
         style="stop-color:#000000;stop-opacity:1;" />
    </linearGradient>
    <linearGradient
       inkscape:collect="always"
       xlink:href="#linearGradient1406"
       id="linearGradient1839"
       gradientUnits="userSpaceOnUse"
       gradientTransform="matrix(0.51084653,-0.05916521,0.05916521,0.51084653,89.970289,-32.417943)"
       x1="147.31734"
       y1="236.8335"
       x2="166.09723"
       y2="236.8335" />
    <linearGradient
       id="linearGradient1406"
       osb:paint="solid">
      <stop
         style="stop-color:#ffff0b;stop-opacity:1;"
         offset="0"
         id="stop1404" />
    </linearGradient>
    <clipPath
       clipPathUnits="userSpaceOnUse"
       id="clipPath1594">
      <path
         style="fill:#90b8c4;fill-opacity:0;stroke:url(#linearGradient1598);stroke-width:1.85208;stroke-linecap:butt;stroke-linejoin:miter;stroke-miterlimit:4;stroke-dasharray:none;stroke-opacity:1"
         d="m -85.785486,149.36458 c 0,0 -2.460144,30.79589 27.496293,26.00802 0,0 -1.495321,-27.05906 -27.496293,-26.00802 z"
         id="path1596" />
    </clipPath>
    <linearGradient
       inkscape:collect="always"
       xlink:href="#linearGradient1406"
       id="linearGradient1841"
       gradientUnits="userSpaceOnUse"
       gradientTransform="matrix(0.51084653,-0.05916521,0.05916521,0.51084653,89.970289,-32.417943)"
       x1="123.77194"
       y1="236.78647"
       x2="142.45927"
       y2="236.78647" />
    <linearGradient
       inkscape:collect="always"
       xlink:href="#linearGradient1215"
       id="linearGradient1843"
       gradientUnits="userSpaceOnUse"
       gradientTransform="matrix(0.14468122,-0.01675668,0.01675668,0.14468122,217.39551,62.540245)"
       x1="-229.47142"
       y1="76.071167"
       x2="-203.69958"
       y2="76.071167" />
    <linearGradient
       gradientUnits="userSpaceOnUse"
       y2="85.07029"
       x2="175.25497"
       y1="85.07029"
       x1="156.56989"
       id="linearGradient1404"
       xlink:href="#linearGradient1422"
       inkscape:collect="always" />
    <linearGradient
       gradientUnits="userSpaceOnUse"
       y2="88.373718"
       x2="166.37364"
       y1="88.373718"
       x1="163.8837"
       id="linearGradient1410"
       xlink:href="#linearGradient1422"
       inkscape:collect="always" />
    <linearGradient
       inkscape:collect="always"
       xlink:href="#linearGradient1429"
       id="linearGradient1845"
       gradientUnits="userSpaceOnUse"
       gradientTransform="matrix(0.14564835,0,0,0.14564835,224.1872,50.951472)"
       x1="-411.02917"
       y1="234.71548"
       x2="-407.90674"
       y2="234.71548" />
    <linearGradient
       id="linearGradient1429"
       osb:paint="solid">
      <stop
         style="stop-color:#ffffff;stop-opacity:1;"
         offset="0"
         id="stop1427" />
    </linearGradient>
    <linearGradient
       gradientUnits="userSpaceOnUse"
       y2="85.137398"
       x2="164.77625"
       y1="85.137398"
       x1="164.32152"
       id="linearGradient1416"
       xlink:href="#linearGradient1422"
       inkscape:collect="always" />
    <linearGradient
       inkscape:collect="always"
       xlink:href="#linearGradient1429"
       id="linearGradient1847"
       gradientUnits="userSpaceOnUse"
       gradientTransform="matrix(0.14564835,0,0,0.14564835,224.1872,50.951472)"
       x1="-423.37189"
       y1="240.31346"
       x2="-417.05228"
       y2="240.31346" />
    <linearGradient
       gradientUnits="userSpaceOnUse"
       y2="85.952728"
       x2="163.44421"
       y1="85.952728"
       x1="162.5238"
       id="linearGradient1418"
       xlink:href="#linearGradient1422"
       inkscape:collect="always" />
    <inkscape:path-effect
       only_selected="false"
       apply_with_weight="true"
       apply_no_weight="true"
       helper_size="0"
       steps="2"
       weight="33.333333"
       lpeversion="1"
       is_visible="true"
       id="path-effect1833"
       effect="bspline" />
    <inkscape:path-effect
       only_selected="false"
       apply_with_weight="true"
       apply_no_weight="true"
       helper_size="0"
       steps="2"
       weight="33.333333"
       lpeversion="1"
       is_visible="true"
       id="path-effect1835"
       effect="bspline" />
  </defs>
  <sodipodi:namedview
     inkscape:window-maximized="0"
     inkscape:window-y="0"
     inkscape:window-x="32"
     inkscape:window-height="1030"
     inkscape:window-width="1424"
     showgrid="true"
     inkscape:document-rotation="0"
     inkscape:current-layer="layer1"
     inkscape:document-units="px"
     inkscape:cy="102.25198"
     inkscape:cx="92.696433"
     inkscape:zoom="3.959798"
     inkscape:pageshadow="2"
     inkscape:pageopacity="0.0"
     borderopacity="1.0"
     bordercolor="#666666"
     pagecolor="#ffffff"
     id="base">
    <inkscape:grid
       type="xygrid"
       id="grid1902" />
  </sodipodi:namedview>
  <metadata
     id="metadata1335">
    <rdf:RDF>
      <cc:Work
         rdf:about="">
        <dc:format>image/svg+xml</dc:format>
        <dc:type
           rdf:resource="http://purl.org/dc/dcmitype/StillImage" />
        <dc:title></dc:title>
      </cc:Work>
    </rdf:RDF>
  </metadata>
  <g
     id="layer1"
     inkscape:groupmode="layer"
     inkscape:label="Layer 1">
    <g
       transform="matrix(5.3752331,0,0,5.3752331,-840.23458,-357.87789)"
       style="display:inline;opacity:1;filter:url(#filter1370)"
       id="g1982">
      <path
         id="path1687"
         d="m 178.16359,81.988159 0.0404,-0.0047 c 0.0938,0.244501 0.38252,0.482224 0.56102,0.671052 0.51241,0.542024 1.07305,1.019645 1.68732,1.441883 1.4509,0.997347 3.41726,1.566253 5.17529,1.258843 2.91892,-0.510415 5.37967,-3.322613 5.33837,-6.321893 -0.0117,-0.844069 -0.18887,-1.68529 -0.56157,-2.449708 -1.27371,-2.612443 -4.52505,-3.99252 -7.32928,-3.381571 -1.71331,0.373274 -3.09385,1.436944 -4.1301,2.827822 -0.30241,0.405921 -0.57651,0.82418 -0.83182,1.261711 -0.11122,0.190633 -0.25758,0.397761 -0.3207,0.609604 l -0.0404,0.0047 c -0.14206,-0.248003 -0.40626,-0.465217 -0.60866,-0.66553 -0.44135,-0.436783 -0.90049,-0.849184 -1.40756,-1.208502 -2.38714,-1.691571 -5.82105,-2.057295 -8.21738,-0.163109 -0.58938,0.465891 -1.08504,1.041032 -1.48231,1.676666 -0.3642,0.582752 -0.65521,1.241686 -0.80749,1.91314 -0.21621,0.953327 -0.17886,1.882629 -0.0109,2.843129 0.15911,0.909966 0.75513,1.829311 1.36459,2.499822 2.08839,2.29757 5.86767,2.672575 8.47445,1.078349 0.93825,-0.573811 1.625,-1.432308 2.22467,-2.337943 0.30572,-0.461733 0.72297,-1.019897 0.88204,-1.553764"
         style="fill:url(#linearGradient1837);fill-opacity:1;stroke:url(#linearGradient1424);stroke-width:0.0203729;stroke-miterlimit:4;stroke-dasharray:none;stroke-opacity:1" />
      <path
         style="fill:url(#linearGradient1839);fill-opacity:1;stroke:none;stroke-width:0.0203094"
         d="m 183.54035,75.277331 c 0.4653,-0.120456 1.01575,-0.10263 1.48773,-0.04111 1.75036,0.228256 3.44594,1.38508 3.76511,3.210541 0.25545,1.460699 -0.49504,2.956324 -1.59393,3.88517 -0.46462,0.392707 -1.03951,0.726552 -1.63792,0.862693 -1.99264,0.453286 -4.02095,-0.622721 -5.3255,-2.080272 -0.27782,-0.3104 -0.54044,-0.631331 -0.7783,-0.973 -0.0668,-0.09598 -0.20249,-0.224345 -0.2242,-0.342051 -0.0199,-0.107651 0.11867,-0.291691 0.16473,-0.387089 0.16764,-0.347089 0.34482,-0.690333 0.53913,-1.023359 0.60285,-1.033174 1.36128,-2.084427 2.42578,-2.68552 0.3719,-0.210004 0.76838,-0.320123 1.17737,-0.426008"
         id="path1689" />
      <path
         id="path1691"
         d="m -98.721769,149.80559 c 3.194674,-0.82703 6.974031,-0.70464 10.214527,-0.28222 12.017741,1.56717 23.659358,9.50975 25.850698,22.0431 1.753885,10.02894 -3.398833,20.29768 -10.943679,26.675 -3.190019,2.69627 -7.137131,4.9884 -11.245694,5.92312 -13.681201,3.1122 -27.607273,-4.27551 -36.564123,-14.28284 -1.90747,-2.13116 -3.71056,-4.33462 -5.34371,-6.68047 -0.45871,-0.659 -1.39025,-1.54032 -1.5393,-2.34847 -0.13644,-0.73912 0.8148,-2.00271 1.13104,-2.6577 1.151,-2.38306 2.36744,-4.73972 3.70159,-7.02623 4.13906,-7.09362 9.34635,-14.31137 16.65501,-18.43838 2.55344,-1.44186 5.27559,-2.19792 8.083641,-2.92491"
         style="fill:#ccffee;fill-opacity:1;stroke:none;stroke-width:0.139441"
         clip-path="url(#clipPath1594)"
         transform="matrix(0.14564835,0,0,0.14564835,197.91901,53.458394)" />
      <path
         id="path1693"
         d="m 170.34856,76.825627 c 0.18512,-0.04795 0.37947,-0.03328 0.5667,-0.04974 0.50648,-0.04442 0.99184,-0.06673 1.49611,0.03118 1.24422,0.241597 2.31075,1.024586 3.19251,1.89966 0.30573,0.303425 0.61132,0.621673 0.87637,0.961642 0.0734,0.09421 0.23562,0.219157 0.26117,0.337769 0.0253,0.117567 -0.11442,0.303752 -0.16296,0.407329 -0.1615,0.344559 -0.3307,0.687884 -0.51559,1.020635 -0.78207,1.40761 -1.69073,2.713714 -3.32433,3.140564 -1.75184,0.457747 -3.92447,-0.09784 -4.95269,-1.670812 -1.17292,-1.794373 -0.51254,-4.286798 1.2198,-5.492781 0.4166,-0.290013 0.85556,-0.459292 1.34291,-0.585449"
         style="fill:url(#linearGradient1841);fill-opacity:1;stroke:none;stroke-width:0.0203094" />
      <path
         id="path1695"
         d="m 169.28336,80.338375 0.10281,0.887679 4.29717,-0.497689 -0.10281,-0.887677 -4.29717,0.497687"
         style="fill:#02979d;stroke:none;stroke-width:0.0203094" />
      <path
         id="path1697"
         d="m 183.51355,77.340846 0.14019,1.210466 -1.1903,0.137858 0.13319,1.149946 1.1903,-0.137858 0.14019,1.210472 1.12977,-0.130849 -0.14019,-1.21047 0.9482,-0.109819 0.30516,-0.06257 -0.0198,-0.297578 -0.0958,-0.827157 -0.90785,0.105146 -0.33936,0.01207 -0.0635,-0.312964 -0.10047,-0.8675 -1.12977,0.130848"
         style="fill:#02979d;stroke:none;stroke-width:0.0203094" />
      <path
         id="path1699"
         d="m 185.4245,75.213099 c 0,0 -0.35832,4.48537 4.00479,3.788025 0,0 -0.2178,-3.941108 -4.00479,-3.788025 z"
         style="fill:#90b8c4;fill-opacity:0;stroke:url(#linearGradient1843);stroke-width:0.269752;stroke-linecap:butt;stroke-linejoin:miter;stroke-miterlimit:4;stroke-dasharray:none;stroke-opacity:1" />
      <path
         sodipodi:nodetypes="sssssssssss"
         id="path1701"
         d="m 163.76913,77.045773 c -0.0916,-0.03387 -0.21473,-0.260667 -0.27671,-0.509523 -0.0431,-0.173097 -0.0574,-0.431718 -0.0751,-1.355809 -0.0169,-0.883861 -0.0327,-1.182706 -0.0701,-1.322443 -0.0266,-0.09929 -0.0143,-0.332004 0.0498,-0.322854 0.0536,0.0076 0.0848,0.05966 0.15395,0.256488 0.0477,0.135794 0.11279,0.371893 0.14457,0.524662 0.0318,0.152769 0.11449,0.443815 0.1838,0.646772 0.16011,0.468804 0.24876,0.982385 0.24876,1.441046 0,0.304731 -0.009,0.371208 -0.0694,0.489088 -0.0735,0.144476 -0.17168,0.196184 -0.28957,0.152573 z"
         style="fill:#ffc114;fill-opacity:1;stroke:#ff5b00;stroke-width:0.115608;stroke-miterlimit:4;stroke-dasharray:none;stroke-opacity:1" />
      <path
         sodipodi:nodetypes="sssssssssscs"
         id="path1703"
         d="m 162.83789,77.45441 c -0.0778,-0.0599 -0.092,-0.08324 -0.28432,-0.468516 -0.14318,-0.286856 -0.38238,-1.031051 -0.42927,-1.33556 -0.0237,-0.154067 -0.0289,-0.701874 -0.0157,-0.943784 0.002,-0.03927 0.003,-0.46874 0.0489,-0.461844 0.0775,0.01154 0.0989,0.0486 0.14768,0.255304 0.0198,0.08407 0.13311,0.35214 0.25176,0.595709 0.11864,0.243571 0.25129,0.556707 0.29477,0.695863 0.0435,0.139154 0.12837,0.382705 0.18863,0.541225 0.20375,0.535935 0.24672,0.888303 0.1314,1.077445 -0.0491,0.08055 -0.081,0.100168 -0.16192,0.09962 -0.0554,-4.37e-4 -0.13279,-0.02533 -0.17194,-0.05546 z"
         style="fill:#ffc114;fill-opacity:1;stroke:#ff5b00;stroke-width:0.115608;stroke-miterlimit:4;stroke-dasharray:none;stroke-opacity:1" />
      <path
         sodipodi:nodetypes="ccccccc"
         d="m 162.14523,77.785844 c -0.29232,-0.446917 -0.69147,-0.837095 -0.85174,-1.359304 -0.2773,-0.771948 -0.36175,-1.237438 -0.15888,-1.074403 0.1905,0.199588 0.38826,0.39656 0.53592,0.632251 0.23241,0.357765 0.38057,0.760516 0.5871,1.132712 0.0754,0.181814 0.23604,0.372616 0.14376,0.578161 -0.0363,0.105339 -0.16039,0.15126 -0.25616,0.09058 z"
         style="fill:#ffc114;fill-opacity:1;stroke:#ff5b00;stroke-width:0.115608;stroke-miterlimit:4;stroke-dasharray:none;stroke-opacity:1"
         id="path1705" />
      <path
         id="path1707"
         d="m 186.0545,84.780061 c -0.0899,-0.08986 -0.0946,-0.141018 -0.0215,-0.231304 0.062,-0.07655 0.22559,-0.09474 0.2996,-0.03332 0.0654,0.05432 0.06,0.22675 -0.009,0.289297 -0.0802,0.07254 -0.18106,0.06328 -0.26902,-0.02468 z"
         style="fill:#d0d0d0;fill-opacity:1;stroke-width:0.0308624" />
      <path
         id="path1709"
         d="m 185.0095,85.055573 c -0.1291,-0.06732 -0.17057,-0.135964 -0.17168,-0.284144 -0.002,-0.293399 0.32032,-0.432338 0.52605,-0.226613 0.0734,0.07343 0.0902,0.116494 0.0902,0.231469 0,0.153268 -0.0614,0.242631 -0.20384,0.296799 -0.10436,0.03968 -0.13541,0.03742 -0.24074,-0.01751 z"
         style="fill:#d0d0d0;fill-opacity:1;stroke-width:0.0308624" />
      <path
         id="path1711"
         d="m 186.43474,85.79603 c -0.15607,-0.08605 -0.18912,-0.230703 -0.0834,-0.365098 0.10925,-0.13888 0.32422,-0.1014 0.41398,0.07217 0.10526,0.203552 -0.12407,0.40677 -0.33057,0.292925 z"
         style="fill:#d0d0d0;fill-opacity:1;stroke-width:0.0308624" />
      <path
         id="path1713"
         d="m 185.39905,85.887832 c -0.21325,-0.149362 -0.21422,-0.630491 -0.002,-0.763703 0.10102,-0.06328 0.46245,-0.09376 0.56385,-0.04756 0.13297,0.06058 0.2129,0.221724 0.19388,0.390826 -0.014,0.124251 -0.0371,0.163428 -0.1647,0.278988 -0.0816,0.07394 -0.18109,0.146854 -0.221,0.162028 -0.11244,0.04275 -0.2945,0.03264 -0.37048,-0.02058 z"
         style="fill:#d0d0d0;fill-opacity:1;stroke-width:0.0308624" />
      <path
         id="path1715"
         d="m 184.63174,86.004303 c -0.17733,-0.02685 -0.24991,-0.326322 -0.10712,-0.441948 0.0904,-0.0732 0.25385,-0.07532 0.3406,-0.0044 0.0363,0.02971 0.0739,0.102622 0.0834,0.162038 0.0293,0.182917 -0.1174,0.314527 -0.31684,0.28433 z"
         style="fill:#d0d0d0;fill-opacity:1;stroke-width:0.0308624" />
      <path
         id="path1717"
         d="m 185.60902,86.647065 c -0.13871,-0.271908 -0.0181,-0.513983 0.22555,-0.452821 0.0913,0.02292 0.14819,0.146042 0.12379,0.268036 -0.0208,0.104253 -0.18397,0.307006 -0.247,0.307006 -0.022,0 -0.068,-0.055 -0.10234,-0.122221 z"
         style="fill:#d0d0d0;fill-opacity:1;stroke-width:0.0308624" />
      <path
         id="path1719"
         d="m 186.12743,87.194703 c 0.12421,-0.05139 0.26309,-0.123896 0.30862,-0.161132 0.0455,-0.03724 0.13834,-0.100795 0.20624,-0.14124 0.19402,-0.115575 0.54471,-0.452576 0.78286,-0.752291 0.2842,-0.357679 0.39881,-0.627277 0.4253,-1.00039 0.0178,-0.25105 0.0128,-0.289366 -0.0575,-0.441402 -0.0888,-0.191866 -0.4597,-0.576101 -0.57966,-0.600513 -0.0424,-0.0086 -0.14659,-0.03564 -0.23147,-0.06002 -0.0849,-0.02437 -0.34874,-0.07331 -0.58638,-0.108747 -0.68278,-0.10182 -1.22282,-0.04039 -1.58706,0.180518 -0.0777,0.04711 -0.21969,0.123539 -0.31559,0.169839 -0.16279,0.0786 -0.45833,0.366755 -0.45833,0.446881 0,0.01666 -0.0529,0.0943 -0.11754,0.172538 -0.26465,0.320265 -0.36583,0.936645 -0.20904,1.273403 0.0791,0.169956 0.32535,0.491497 0.43178,0.563866 0.0355,0.02414 0.12845,0.102623 0.20656,0.174405 0.18704,0.171908 0.57364,0.350487 0.83015,0.383465 0.34085,0.04382 0.6946,0.0069 0.95111,-0.09918 z"
         style="fill:#d0d0d0;fill-opacity:1;stroke-width:0.0308624" />
      <path
         id="path1721"
         d="m 184.6989,88.94298 c -0.15225,-0.03994 -0.31891,-0.09274 -0.37035,-0.117329 -0.0514,-0.02459 -0.19769,-0.08975 -0.325,-0.144812 -0.4815,-0.208242 -0.98706,-0.612853 -1.26817,-1.014938 -0.24643,-0.352483 -0.28516,-0.416659 -0.34559,-0.572561 -0.21222,-0.547508 -0.27413,-0.879494 -0.25625,-1.374147 0.0201,-0.557137 0.12826,-0.930634 0.45988,-1.588646 0.19453,-0.385993 0.34209,-0.580366 0.69196,-0.911467 0.2399,-0.227022 0.33067,-0.288504 0.69187,-0.468602 0.38683,-0.192873 0.44297,-0.211662 0.8069,-0.270047 0.60771,-0.09749 0.94737,-0.084 1.62667,0.06464 0.54024,0.118204 1.10218,0.442424 1.60849,0.928036 0.11233,0.107743 0.2582,0.233288 0.32414,0.278987 0.29595,0.205093 0.54298,0.540822 0.6623,0.900102 0.0674,0.202977 0.0691,0.230622 0.0366,0.586386 -0.0251,0.274053 -0.0625,0.459563 -0.14087,0.697423 -0.14159,0.429945 -0.38039,0.923416 -0.57195,1.181924 -0.29145,0.393308 -1.14412,1.289068 -1.34775,1.41586 -0.22479,0.139966 -0.69007,0.337439 -0.97427,0.413495 -0.3842,0.102821 -0.90684,0.101102 -1.3086,-0.0043 z"
         style="fill:#d0d0d0;fill-opacity:1;stroke-width:0.0308624" />
      <path
         id="path1723"
         d="m 164.40211,90.086963 c -0.18377,-0.09572 -0.29005,-0.223725 -0.4178,-0.50319 -0.0958,-0.209612 -0.10307,-0.248066 -0.10307,-0.546929 0,-0.270875 0.0114,-0.347103 0.0727,-0.484374 0.0733,-0.164416 0.37695,-0.486962 0.4584,-0.486962 0.0263,0 0.042,-0.04199 0.044,-0.117454 0.002,-0.07943 0.0369,-0.166581 0.1075,-0.269218 0.1404,-0.204072 0.75877,-0.807965 0.85104,-0.831123 0.0405,-0.01018 0.17385,-0.06501 0.29623,-0.121846 0.30491,-0.141613 0.34657,-0.151434 0.46979,-0.110766 0.1264,0.04172 0.20022,0.134697 0.20022,0.252186 0,0.17104 -0.0563,0.231566 -0.29407,0.315965 -0.12368,0.04391 -0.25122,0.07983 -0.28342,0.07983 -0.0322,0 -0.12028,0.0397 -0.19574,0.08822 -0.193,0.124092 -0.61558,0.544828 -0.61558,0.612887 0,0.03119 -0.0209,0.08661 -0.0465,0.123147 -0.0423,0.06034 -0.0406,0.07652 0.0184,0.176504 0.0704,0.1193 0.07,0.27254 -0.001,0.542361 -0.0202,0.07639 -0.0284,0.192017 -0.0183,0.25696 0.028,0.178991 0.18418,0.465635 0.27666,0.507768 0.0585,0.02665 0.0798,0.05972 0.0798,0.123735 0,0.0677 -0.0394,0.121676 -0.17496,0.239845 -0.0962,0.08387 -0.20386,0.16935 -0.23918,0.189967 -0.10546,0.06155 -0.32745,0.04437 -0.48466,-0.03752 z"
         style="fill:#d0d0d0;fill-opacity:1;stroke-width:0.0308624" />
      <path
         d="m 181.56542,92.040153 c -0.60231,-0.25796 -2.62688,-0.06254 -1.44569,-1.132026 1.15001,-0.583342 2.47614,-0.118348 3.70477,-0.244105 1.30323,-0.0628 2.61369,-0.0525 3.8993,0.183359 0.53521,-0.09024 2.53047,0.0032 1.3349,0.67515 -1.1386,0.08095 -2.204,0.460538 -3.36432,0.454251 -1.37919,0.219213 -2.75647,-0.135827 -4.12896,0.06337 z"
         style="fill:#344f58;fill-opacity:1;stroke-width:0.0308624"
         id="path1725" />
      <path
         id="path1727"
         d="m 165.16203,82.571405 c 0.11882,-0.03203 0.29472,-0.07351 0.39088,-0.09218 0.19833,-0.0385 0.19355,-0.0063 0.0569,-0.383224 -0.0491,-0.135516 -0.0705,-0.283186 -0.0827,-0.570955 -0.0209,-0.494147 -0.0654,-0.668487 -0.27019,-1.059206 -0.17145,-0.327136 -0.24626,-0.544222 -0.27923,-0.810354 -0.10659,-0.860277 -0.34514,-1.836315 -0.44881,-1.836315 -0.0125,0 -0.0401,0.02083 -0.0612,0.04629 -0.0211,0.02546 -0.0532,0.04629 -0.0712,0.04629 -0.018,0 -0.0964,0.05357 -0.174,0.119049 -0.0777,0.06548 -0.20354,0.150666 -0.27975,0.189311 -0.0762,0.03864 -0.20106,0.112492 -0.27744,0.164106 -0.0764,0.05161 -0.17361,0.116759 -0.21604,0.144769 -0.0424,0.02801 -0.19837,0.0985 -0.34651,0.156636 -0.14815,0.05814 -0.26866,0.119597 -0.26779,0.136571 8.7e-4,0.01698 0.0275,0.07253 0.0591,0.12345 0.13702,0.22055 0.30446,0.568595 0.3502,0.727924 0.0775,0.270041 0.28888,0.691703 0.43196,0.861739 0.086,0.102178 0.35945,0.654114 0.35945,0.725463 0,0.02512 0.0486,0.09948 0.10801,0.165236 0.0594,0.06576 0.10817,0.131769 0.10835,0.146686 1.4e-4,0.01492 0.0634,0.110451 0.14061,0.212297 0.17912,0.236432 0.34901,0.537062 0.38773,0.686094 0.0503,0.193737 0.055,0.201149 0.11199,0.179219 0.0296,-0.01138 0.15096,-0.04688 0.26978,-0.07891 z"
         style="fill:#d0d0d0;fill-opacity:1;stroke-width:0.0308624" />
      <path
         id="path1729"
         d="m 173.80478,84.796137 c -0.0112,-0.0181 -0.043,-0.03292 -0.0707,-0.03292 -0.0421,0 -0.0406,0.0072 0.009,0.04377 0.0647,0.04727 0.0939,0.04208 0.0612,-0.01085 z"
         style="fill:#d0d0d0;fill-opacity:1;stroke-width:0.0308624" />
      <path
         id="path1731"
         d="m 164.56047,85.281709 c 0.0935,-0.06122 0.16503,-0.13522 0.18441,-0.1908 0.0174,-0.04994 0.0278,-0.09462 0.0232,-0.09928 -0.0194,-0.01935 -0.30987,-0.136645 -0.31809,-0.128425 -0.0159,0.01594 -0.13663,0.468417 -0.13663,0.512237 0,0.05372 0.0521,0.03396 0.24715,-0.09373 z"
         style="fill:#d0d0d0;fill-opacity:1;stroke-width:0.0308624" />
      <path
         id="path1733"
         d="m 163.23072,86.443334 c 0.18645,-0.06931 0.20876,-0.09293 0.15054,-0.159408 -0.12461,-0.142297 -0.21318,-0.494725 -0.24881,-0.989998 -0.007,-0.101972 -0.007,-0.101972 -0.23107,0.0881 -0.28275,0.240204 -0.34106,0.362577 -0.36519,0.766484 -0.0177,0.296715 -0.0177,0.296715 0.10935,0.441921 l 0.12708,0.145204 0.1584,-0.119891 c 0.0871,-0.06594 0.22199,-0.143524 0.2997,-0.172409 z"
         style="fill:#d0d0d0;fill-opacity:1;stroke-width:0.0308624" />
      <path
         id="path1735"
         d="m 171.50189,86.555617 c -0.11404,-0.114043 -0.11355,-0.171845 0.002,-0.280136 0.0509,-0.04757 0.0926,-0.108694 0.0926,-0.135833 0,-0.07954 0.0916,-0.0569 0.18822,0.04651 0.11871,0.127073 0.11848,0.250307 -7.2e-4,0.369461 -0.0496,0.04962 -0.11318,0.09021 -0.14126,0.09021 -0.0281,0 -0.0916,-0.0406 -0.14125,-0.09021 z"
         style="fill:#d0d0d0;fill-opacity:1;stroke-width:0.0308624" />
      <path
         id="path1737"
         d="m 170.05959,86.79648 c -0.21137,-0.20665 -0.0799,-0.551862 0.21018,-0.551862 0.18739,0 0.30862,0.127288 0.30862,0.324056 0,0.299523 -0.30739,0.434498 -0.5188,0.227806 z"
         style="fill:#d0d0d0;fill-opacity:1;stroke-width:0.0308624" />
      <path
         id="path1739"
         d="m 172.05979,87.958879 c -0.0424,-0.02333 -0.11067,-0.104423 -0.15163,-0.180196 -0.0745,-0.13777 -0.0745,-0.13777 -0.0143,-0.240723 0.0773,-0.13236 0.22021,-0.214899 0.38333,-0.221403 0.1077,-0.0043 0.14203,0.0097 0.20618,0.08432 0.067,0.07785 0.0751,0.111482 0.0629,0.258784 -0.0118,0.142016 -0.0298,0.183394 -0.11186,0.256709 -0.10903,0.09741 -0.2464,0.113002 -0.37461,0.0425 z"
         style="fill:#d0d0d0;fill-opacity:1;stroke-width:0.0308624" />
      <path
         id="path1741"
         d="m 170.66365,87.955471 c -0.12411,-0.06734 -0.1817,-0.20365 -0.1817,-0.430056 0,-0.324557 0.0986,-0.447569 0.37172,-0.463554 0.0778,-0.0045 0.19692,-0.01723 0.26481,-0.02818 0.15687,-0.0253 0.26035,0.02687 0.33346,0.168112 0.0673,0.130043 0.0557,0.319842 -0.0273,0.446571 -0.0317,0.0484 -0.13939,0.148172 -0.23929,0.221713 -0.20051,0.147606 -0.35915,0.173576 -0.52166,0.0854 z"
         style="fill:#d0d0d0;fill-opacity:1;stroke-width:0.0308624" />
      <path
         id="path1743"
         d="m 169.65196,88.207444 c -0.0914,-0.05151 -0.19483,-0.267579 -0.19109,-0.399017 0.005,-0.19002 0.22281,-0.286999 0.39829,-0.177665 0.0542,0.0338 0.12211,0.09728 0.15081,0.141084 0.0722,0.110141 0.068,0.313957 -0.008,0.389886 -0.0789,0.07886 -0.25139,0.101382 -0.35012,0.04571 z"
         style="fill:#d0d0d0;fill-opacity:1;stroke-width:0.0308624" />
      <path
         id="path1745"
         d="m 170.99503,88.962204 c -0.18739,-0.0767 -0.24779,-0.362137 -0.10808,-0.510847 0.22606,-0.240627 0.62373,0.0057 0.52753,0.326804 -0.0496,0.165409 -0.25005,0.253377 -0.41945,0.184043 z"
         style="fill:#d0d0d0;fill-opacity:1;stroke-width:0.0308624" />
      <path
         id="path1747"
         d="m 171.19564,89.961525 c 0.18492,-0.02891 0.50393,-0.162835 0.72723,-0.305311 0.11774,-0.07513 0.31129,-0.196155 0.43011,-0.268953 0.32474,-0.19896 0.91338,-0.812884 1.24577,-1.299276 0.20514,-0.300196 0.36664,-0.921158 0.33307,-1.280675 -0.031,-0.33239 -0.16292,-0.570117 -0.50318,-0.907009 -0.16018,-0.158596 -0.29597,-0.292514 -0.30176,-0.297594 -0.0412,-0.03617 -0.79498,-0.199725 -1.17511,-0.254974 -0.76695,-0.111469 -1.60399,-0.05014 -1.87133,0.137111 -0.0392,0.02747 -0.10641,0.05004 -0.14931,0.05015 -0.0429,1.22e-4 -0.11967,0.02834 -0.17059,0.06273 -0.0509,0.03439 -0.20776,0.119371 -0.34852,0.188852 -0.20901,0.103172 -0.29346,0.1681 -0.46067,0.354194 -0.11261,0.125324 -0.23936,0.286764 -0.28165,0.358752 -0.0423,0.07199 -0.10709,0.167536 -0.14398,0.212328 -0.0369,0.04479 -0.11024,0.170949 -0.16301,0.280348 -0.22293,0.462237 -0.2556,1.062618 -0.0785,1.443665 0.0513,0.110333 0.15444,0.268383 0.22927,0.351224 0.0748,0.08284 0.15794,0.183646 0.18468,0.224013 0.0472,0.07123 0.35594,0.35419 0.61075,0.559729 0.117,0.09437 0.42437,0.250298 0.63685,0.323066 0.28005,0.09591 0.86617,0.127623 1.24993,0.06764 z"
         style="fill:#d0d0d0;fill-opacity:1;stroke-width:0.0308624" />
      <path
         id="path1749"
         d="m 168.23285,92.960813 c -0.0764,-0.01944 -0.18455,-0.06009 -0.24036,-0.09032 -0.0778,-0.04213 -0.14983,-0.0519 -0.30859,-0.04181 -0.33895,0.02152 -0.8897,-0.0378 -1.27788,-0.137644 -0.30678,-0.07891 -0.37154,-0.08697 -0.43208,-0.05381 -0.0499,0.02733 -0.34389,0.04576 -0.98165,0.06154 -0.98871,0.02446 -1.17573,0.03936 -1.3694,0.109076 -0.33726,0.121411 -2.17812,0.212157 -2.67349,0.131791 -0.34828,-0.0565 -0.74532,-0.203651 -0.97422,-0.361055 -0.17621,-0.121173 -0.2296,-0.179344 -0.31353,-0.341626 -0.0614,-0.118675 -0.10115,-0.240957 -0.10115,-0.310961 0,-0.08371 -0.0216,-0.135628 -0.0786,-0.189177 -0.0432,-0.04059 -0.11551,-0.132211 -0.16067,-0.203597 -0.0821,-0.129794 -0.0821,-0.129794 -0.18598,-0.0386 -0.0571,0.05016 -0.23828,0.156714 -0.40257,0.236795 -0.2987,0.145599 -0.2987,0.145599 -0.65361,0.145402 -0.4815,-2.91e-4 -0.61157,-0.02695 -0.81959,-0.168132 -0.28378,-0.192601 -0.41812,-0.339209 -0.52447,-0.572369 -0.12805,-0.280758 -0.15062,-0.413401 -0.14966,-0.879579 8.8e-4,-0.409199 0.0378,-0.604701 0.1877,-0.993114 0.0627,-0.162536 0.1279,-0.256076 0.30826,-0.442382 0.46526,-0.480591 1.06209,-0.62654 1.59126,-0.389118 0.35322,0.158478 0.49698,0.468398 0.39224,0.845574 -0.0326,0.117499 -0.17875,0.309794 -0.27424,0.360898 -0.0284,0.01519 -0.1751,0.04917 -0.32605,0.07552 -0.29509,0.05151 -0.30974,0.06231 -0.37555,0.276933 -0.0358,0.116584 -0.0243,0.377599 0.0196,0.448743 0.0161,0.02609 0.11238,0.02658 0.37414,0.0019 0.56424,-0.05317 0.84126,-0.09337 1.08847,-0.157956 0.11471,-0.02997 0.11811,-0.03468 0.0989,-0.136947 -0.0205,-0.109408 0.0208,-0.618218 0.0788,-0.970248 0.0278,-0.168671 0.17071,-0.536212 0.27604,-0.709836 0.0154,-0.02546 0.0642,-0.122679 0.10826,-0.216036 0.0941,-0.199291 0.26012,-0.382335 0.42291,-0.466353 0.15107,-0.07797 0.53417,-0.127252 0.67881,-0.08731 0.0669,0.01847 0.14191,0.07316 0.19398,0.141425 0.0739,0.09689 0.0813,0.125446 0.0572,0.220471 -0.0221,0.08712 -0.0588,0.126434 -0.18196,0.19471 -0.0849,0.04705 -0.17305,0.08647 -0.19594,0.0876 -0.12103,0.006 -0.25214,0.107556 -0.31505,0.244104 -0.0364,0.07905 -0.11232,0.240943 -0.16867,0.359764 -0.12267,0.258617 -0.12848,0.280891 -0.18116,0.694405 -0.0508,0.399187 -0.007,0.741321 0.11561,0.909491 0.0463,0.06334 0.26246,0.138621 0.40013,0.139362 0.0478,2.92e-4 0.23379,-0.04814 0.41322,-0.107549 0.17943,-0.05941 0.3744,-0.108019 0.43326,-0.108019 0.0899,0 0.10343,-0.0086 0.0846,-0.05401 -0.0953,-0.229404 -0.11053,-0.334418 -0.0739,-0.510812 0.0438,-0.211307 0.15637,-0.392019 0.3665,-0.58857 0.17768,-0.166204 0.27365,-0.181639 0.39221,-0.06309 0.0702,0.07018 0.0775,0.09703 0.0614,0.223754 -0.0101,0.0792 -0.0532,0.227335 -0.0958,0.329181 -0.0427,0.101846 -0.0768,0.212951 -0.0759,0.2469 0.003,0.09825 0.16403,0.338969 0.23051,0.343921 0.0327,0.0024 0.0988,0.0059 0.14677,0.0077 0.053,0.002 0.12417,0.04021 0.18132,0.09736 0.0826,0.08257 0.092,0.109451 0.0772,0.21977 -0.0115,0.0857 -0.0493,0.159177 -0.11884,0.230917 -0.0951,0.09813 -0.10227,0.12025 -0.10613,0.328038 -0.004,0.222814 -0.004,0.222814 0.16899,0.212318 0.16978,-0.0103 0.17426,-0.01298 0.23162,-0.138881 0.0322,-0.07061 0.0926,-0.174403 0.13423,-0.23065 0.0673,-0.09083 0.11986,-0.123496 0.3628,-0.225366 0.42003,-0.176119 1.18784,-0.264369 1.55803,-0.179073 0.15219,0.03507 0.40076,0.187729 0.54368,0.333909 0.0875,0.08948 0.0995,0.09278 0.25092,0.06885 0.11096,-0.01754 0.19456,-0.01276 0.27658,0.01579 0.0647,0.02251 0.13859,0.04114 0.1643,0.0414 0.0795,7.28e-4 0.28925,0.125856 0.361,0.215284 0.0595,0.07421 0.097,0.08763 0.29319,0.105069 0.20159,0.01792 0.24069,0.01196 0.37676,-0.05736 0.27189,-0.13852 0.61543,-0.09297 0.83776,0.111073 0.0428,0.03924 0.10874,0.05832 0.20061,0.058 0.24501,-8.74e-4 0.24005,-0.04151 -0.0225,-0.184216 -0.13301,-0.07231 -0.28351,-0.162486 -0.33443,-0.200402 -0.0509,-0.03792 -0.15109,-0.09874 -0.22259,-0.135153 -0.15612,-0.07951 -0.66025,-0.571291 -0.73596,-0.717924 -0.0296,-0.05739 -0.11643,-0.180732 -0.19288,-0.274092 -0.0764,-0.09336 -0.21311,-0.326864 -0.30368,-0.518901 -0.13437,-0.284904 -0.18271,-0.43541 -0.26266,-0.817855 -0.087,-0.416146 -0.0979,-0.52406 -0.0968,-0.962495 0.001,-0.493799 0.001,-0.493799 0.17189,-0.987598 0.0939,-0.271589 0.21369,-0.597959 0.26621,-0.725267 0.0525,-0.127307 0.0955,-0.241348 0.0956,-0.253426 7e-5,-0.01207 -0.0536,-0.03643 -0.11931,-0.05411 -0.24256,-0.06531 -0.40524,-0.282077 -0.40524,-0.539946 0,-0.140111 0,-0.140111 -0.25462,-0.139773 l -0.25461,2.92e-4 -0.0739,0.300571 c -0.0406,0.165314 -0.11395,0.371851 -0.16293,0.458973 -0.18193,0.323658 -0.66897,0.67851 -1.06454,0.77562 -0.21451,0.05266 -0.21451,0.05266 -0.20312,0.300016 0.009,0.197253 6e-5,0.266984 -0.0445,0.34425 -0.10142,0.175855 -0.35095,0.464955 -0.48225,0.558721 -0.1237,0.08834 -0.54921,0.254827 -0.65128,0.254827 -0.0365,0 -0.0488,0.03156 -0.0488,0.124751 0,0.104927 -0.0427,0.366692 -0.10913,0.669097 -0.022,0.09995 -0.22166,0.224613 -0.35981,0.224613 -0.0894,0 -0.1516,-0.0294 -0.27832,-0.131541 -0.29285,-0.236068 -0.41203,-0.592092 -0.32461,-0.969689 0.0442,-0.190789 0.0442,-0.190789 -0.11909,-0.352024 -0.096,-0.09481 -0.20394,-0.24507 -0.26201,-0.364736 -0.0543,-0.111925 -0.11918,-0.22712 -0.14415,-0.255987 -0.0422,-0.04877 -0.0509,-0.04891 -0.12244,-0.002 -0.1312,0.08597 -0.54662,0.09067 -0.81475,0.0092 -0.20612,-0.06261 -0.24778,-0.06543 -0.5092,-0.0346 -0.1566,0.01847 -0.42228,0.03358 -0.59042,0.03358 -0.24875,0 -0.34839,0.01483 -0.53483,0.07958 -0.12602,0.04377 -0.26385,0.111651 -0.30629,0.150845 -0.17209,0.158945 -0.37035,0.11166 -0.37035,-0.08832 0,-0.0829 0.0274,-0.128603 0.13819,-0.230758 0.076,-0.07006 0.15191,-0.12738 0.16867,-0.12738 0.0578,0 0.25392,-0.196363 0.35683,-0.357224 0.15876,-0.248185 0.42351,-0.45016 0.7449,-0.568259 0.24532,-0.09015 0.30987,-0.100881 0.62833,-0.104442 0.38275,-0.0043 0.59647,0.03147 0.73206,0.122443 0.10116,0.06788 0.28873,0.138122 0.31895,0.119446 0.0117,-0.0072 0.0291,-0.05264 0.0388,-0.100962 0.01,-0.04832 0.0944,-0.202014 0.18834,-0.341538 0.0939,-0.139526 0.19803,-0.315311 0.23135,-0.390638 0.0333,-0.07533 0.0946,-0.182324 0.13617,-0.237774 0.0416,-0.05545 0.10649,-0.162294 0.14426,-0.237433 0.11443,-0.227693 0.35779,-0.457739 0.6204,-0.586462 0.1295,-0.06347 0.28248,-0.143776 0.33996,-0.178448 0.0575,-0.03467 0.17701,-0.08656 0.26562,-0.115313 0.10432,-0.03384 0.18883,-0.08686 0.2397,-0.150395 0.42818,-0.534644 0.67418,-0.805616 0.80449,-0.886149 0.0964,-0.05958 0.0987,-0.06573 0.0706,-0.192289 -0.016,-0.0719 -0.0629,-0.179343 -0.10435,-0.238753 -0.0988,-0.141701 -0.36181,-0.507686 -0.47676,-0.663543 -0.0501,-0.0679 -0.14136,-0.227611 -0.20284,-0.354918 -0.19302,-0.399692 -0.26605,-0.532943 -0.43132,-0.786992 -0.21226,-0.326271 -0.25371,-0.410072 -0.37175,-0.751717 -0.0549,-0.158829 -0.11496,-0.303961 -0.13351,-0.322513 -0.0186,-0.01855 -0.0337,-0.04902 -0.0337,-0.06772 0,-0.01869 -0.0556,-0.119478 -0.12345,-0.223971 -0.0679,-0.104491 -0.12345,-0.202769 -0.12345,-0.218394 0,-0.01563 -0.0227,-0.04727 -0.0505,-0.07033 -0.0832,-0.06904 -0.1716,-0.309388 -0.15208,-0.413437 0.01,-0.05148 0.0696,-0.158718 0.13322,-0.238302 0.0636,-0.07958 0.14344,-0.190393 0.17739,-0.246244 0.062,-0.102079 0.18834,-0.17686 0.64829,-0.383874 0.11872,-0.05343 0.32348,-0.129002 0.45503,-0.167931 0.16282,-0.04818 0.28421,-0.107993 0.38023,-0.187333 0.0776,-0.0641 0.18759,-0.125285 0.24449,-0.135958 0.13729,-0.02576 0.29312,0.01088 0.31622,0.07434 0.0102,0.0281 0.0518,0.0914 0.0925,0.140668 0.0498,0.06034 0.0712,0.120907 0.0656,0.185619 -0.005,0.05283 -3e-4,0.109737 0.009,0.126468 0.031,0.05351 0.11023,0.333125 0.14849,0.524217 0.0204,0.101845 0.0567,0.230782 0.0807,0.286524 0.024,0.05574 0.0442,0.146015 0.045,0.200606 0.002,0.166789 0.10853,0.683551 0.16032,0.77995 0.0268,0.04998 0.0795,0.188083 0.11692,0.306904 0.0375,0.11882 0.085,0.236869 0.1056,0.26233 0.0813,0.100407 0.1664,0.33723 0.22165,0.617249 0.008,0.04244 0.0345,0.160484 0.0582,0.26233 0.0236,0.101846 0.0506,0.348731 0.06,0.548632 0.0148,0.314591 0.0303,0.396111 0.11588,0.606335 0.0947,0.23278 0.10197,0.241676 0.17489,0.213949 0.0419,-0.01591 0.21709,-0.03009 0.38941,-0.0315 0.34094,-0.0028 0.51188,0.04733 0.69937,0.205088 0.0508,0.04278 0.11762,0.07778 0.14841,0.07778 0.0308,0 0.11653,0.02747 0.19052,0.06105 0.074,0.03358 0.16648,0.06135 0.20551,0.06172 0.039,4.37e-4 0.11218,0.02198 0.16253,0.04802 0.082,0.04238 0.10598,0.04245 0.22911,5.82e-4 0.0756,-0.02568 0.15649,-0.03942 0.17966,-0.03054 0.0233,0.0089 0.0968,-0.03858 0.16438,-0.106108 0.15774,-0.157733 0.29395,-0.186402 0.51231,-0.107825 0.26843,0.0966 0.3577,0.299713 0.25591,0.582253 -0.0533,0.148105 -0.0576,0.200607 -0.0163,0.200607 0.017,0 0.0309,-0.01593 0.0309,-0.0354 0,-0.01947 0.0491,-0.09534 0.10916,-0.168605 0.15534,-0.189573 0.37986,-0.246306 0.58658,-0.148213 0.0979,0.04648 0.11801,0.04467 0.39044,-0.03519 0.36364,-0.106592 0.66062,-0.106899 0.91669,-10e-4 0.0951,0.03935 0.27573,0.08063 0.40136,0.09172 0.24473,0.02161 0.43329,0.103271 0.51048,0.221067 0.0313,0.04785 0.0886,0.07299 0.19983,0.08775 0.17998,0.02387 0.54515,0.199544 0.65263,0.313955 0.0405,0.04306 0.1339,0.104979 0.20767,0.137608 0.13799,0.06104 0.22143,0.139415 0.29908,0.280905 0.0245,0.04461 0.11794,0.130023 0.2077,0.189816 0.21966,0.146336 0.27492,0.212511 0.41334,0.494964 0.11158,0.227665 0.11562,0.245853 0.072,0.323609 -0.0254,0.04531 -0.079,0.0987 -0.11896,0.118639 -0.0724,0.03608 -0.0722,0.03654 0.0472,0.09836 0.39233,0.20315 0.75874,0.661639 0.96604,1.2088 0.12238,0.32301 0.0682,0.998892 -0.12363,1.54303 -0.0688,0.195255 -0.14374,0.421045 -0.16645,0.501754 -0.0227,0.08071 -0.0697,0.191815 -0.10434,0.246901 -0.0347,0.05508 -0.12745,0.225147 -0.20614,0.377916 -0.18135,0.352067 -0.32986,0.549144 -0.66863,0.887302 -0.1488,0.148529 -0.30758,0.329073 -0.35285,0.401211 -0.10858,0.173058 -0.49748,0.573983 -0.76546,0.789136 -0.11787,0.09464 -0.36501,0.250431 -0.5492,0.346211 -0.276,0.143524 -0.32701,0.180685 -0.29007,0.211341 0.0705,0.05848 0.0964,0.378813 0.0396,0.4887 -0.0665,0.128605 -0.33068,0.318135 -0.63415,0.454954 -0.23528,0.106082 -0.27677,0.115339 -0.4475,0.09984 -0.18316,-0.01663 -0.32213,0.0043 -0.6026,0.09071 -0.16606,0.05117 -0.54163,0.05482 -0.73107,0.0071 -0.10503,-0.02645 -0.15842,-0.02611 -0.21874,0.0013 -0.24295,0.110695 -0.83887,0.155123 -1.12019,0.08352 z"
         style="fill:#d0d0d0;fill-opacity:1;stroke:url(#linearGradient1404);stroke-width:0.0838729;stroke-miterlimit:4;stroke-dasharray:none;stroke-opacity:1" />
      <path
         id="path1751"
         d="m 186.10926,84.83516 c -0.0216,-0.0087 -0.0594,-0.05479 -0.0841,-0.102463 -0.0409,-0.07915 -0.0393,-0.09365 0.0183,-0.166956 0.11806,-0.150082 0.33643,-0.0817 0.33643,0.105355 0,0.131052 -0.14074,0.216351 -0.2707,0.164064 z"
         style="fill:#a3a3a3;fill-opacity:1;stroke-width:0.0308624" />
      <path
         id="path1753"
         d="m 184.92705,84.981639 c -0.28411,-0.284105 0.13748,-0.711859 0.43118,-0.437496 0.0798,0.07456 0.0959,0.112815 0.0959,0.228725 0,0.117534 -0.0148,0.151614 -0.095,0.219086 -0.1362,0.114602 -0.31135,0.110421 -0.43208,-0.01031 z"
         style="fill:#a3a3a3;fill-opacity:1;stroke-width:0.0308624" />
      <path
         id="path1755"
         d="m 186.3815,85.74757 c -0.1024,-0.08522 -0.1046,-0.258988 -0.004,-0.340207 0.21872,-0.177104 0.51769,0.105639 0.35592,0.336596 -0.063,0.08995 -0.24562,0.09183 -0.35162,0.0036 z"
         style="fill:#a3a3a3;fill-opacity:1;stroke-width:0.0308624" />
      <path
         id="path1757"
         d="m 185.41628,85.887892 c -0.0462,-0.0251 -0.097,-0.06968 -0.11269,-0.09907 -0.0522,-0.09756 -0.0715,-0.33352 -0.0375,-0.45965 0.0444,-0.165042 0.13105,-0.238234 0.29024,-0.245293 0.0711,-0.0031 0.16591,-0.01522 0.21076,-0.02682 0.16841,-0.04356 0.36519,0.123855 0.38776,0.32988 0.0182,0.16598 -0.065,0.298648 -0.27979,0.446099 -0.16664,0.11441 -0.31611,0.132281 -0.45879,0.05485 z"
         style="fill:#a3a3a3;fill-opacity:1;stroke-width:0.0308624" />
      <path
         id="path1759"
         d="m 184.52821,85.936001 c -0.087,-0.08696 -0.0838,-0.285624 0.006,-0.369147 0.0722,-0.06725 0.20928,-0.08212 0.30159,-0.03272 0.12828,0.06866 0.14188,0.333825 0.0214,0.418183 -0.093,0.06512 -0.25547,0.05706 -0.32885,-0.01632 z"
         style="fill:#a3a3a3;fill-opacity:1;stroke-width:0.0308624" />
      <path
         id="path1761"
         d="m 185.68073,86.744144 c -0.073,-0.04699 -0.14044,-0.232193 -0.12321,-0.33838 0.0358,-0.220393 0.23288,-0.29967 0.35598,-0.143171 0.0776,0.09867 0.0587,0.23408 -0.0514,0.367813 -0.093,0.112995 -0.13836,0.14143 -0.18139,0.113738 z"
         style="fill:#a3a3a3;fill-opacity:1;stroke-width:0.0308624" />
      <path
         id="path1763"
         d="m 186.03923,87.245531 c 0.16418,-0.05765 0.2872,-0.123747 0.43331,-0.232832 0.0594,-0.04435 0.15288,-0.103588 0.2077,-0.131632 0.14982,-0.07664 0.48263,-0.400561 0.73882,-0.719082 0.25722,-0.319805 0.38739,-0.595469 0.43936,-0.930424 0.0596,-0.384369 -0.0224,-0.593747 -0.3591,-0.91659 -0.14326,-0.137362 -0.26617,-0.230075 -0.30534,-0.230315 -0.0361,-1.46e-4 -0.12297,-0.02066 -0.19314,-0.04541 -0.0702,-0.02476 -0.32537,-0.0751 -0.56712,-0.111889 -0.63181,-0.09613 -1.20902,-0.05369 -1.5043,0.1106 -0.0424,0.02361 -0.19006,0.10042 -0.32806,0.170685 -0.26748,0.136189 -0.39656,0.251976 -0.58385,0.523727 -0.0643,0.09336 -0.14262,0.204678 -0.17394,0.247376 -0.12048,0.164216 -0.20903,0.493479 -0.20972,0.779826 -5.8e-4,0.231986 0.011,0.294057 0.0801,0.43048 0.0999,0.197087 0.30126,0.466991 0.39359,0.527485 0.038,0.0249 0.14471,0.114374 0.23715,0.198839 0.18489,0.168953 0.53198,0.336479 0.78531,0.379039 0.2175,0.03654 0.74556,0.0076 0.9092,-0.04988 z"
         style="fill:#a3a3a3;fill-opacity:1;stroke-width:0.0308624" />
      <path
         id="path1765"
         d="m 184.72882,88.942854 c -0.15277,-0.04001 -0.33332,-0.09628 -0.40121,-0.12503 -0.9115,-0.386004 -1.29045,-0.693229 -1.78448,-1.446719 -0.26872,-0.409842 -0.4506,-1.200747 -0.40718,-1.770628 0.035,-0.459971 0.21875,-1.026879 0.50134,-1.547084 0.19915,-0.366609 0.34187,-0.546142 0.67065,-0.843658 0.23868,-0.215979 0.35255,-0.291485 0.6987,-0.46331 0.40936,-0.203199 0.41836,-0.205963 0.88824,-0.272736 0.43363,-0.06162 0.50702,-0.06421 0.84871,-0.0299 0.44863,0.04505 1.02424,0.181877 1.2554,0.298409 0.30579,0.154162 0.57913,0.348656 0.91948,0.654273 0.18497,0.1661 0.41402,0.360619 0.509,0.432267 0.27346,0.206293 0.50515,0.55819 0.59281,0.90037 0.10835,0.422922 -0.0686,1.228671 -0.42375,1.929686 -0.17641,0.348183 -0.36922,0.612557 -0.64945,0.890496 -0.10656,0.105688 -0.25624,0.274088 -0.33263,0.374223 -0.24097,0.315897 -0.57177,0.580656 -0.9621,0.77003 -0.49616,0.240717 -0.84988,0.32959 -1.29502,0.325378 -0.26093,-0.0025 -0.42188,-0.02195 -0.62851,-0.07607 z"
         style="fill:#a3a3a3;fill-opacity:1;stroke-width:0.0308624" />
      <path
         id="path1767"
         d="m 164.32576,90.032989 c -0.12264,-0.08264 -0.17448,-0.149893 -0.29443,-0.381953 -0.14474,-0.28 -0.1456,-0.283481 -0.14742,-0.594169 -0.002,-0.264438 0.009,-0.33803 0.0715,-0.478339 0.0884,-0.199962 0.25889,-0.3957 0.40493,-0.465001 0.094,-0.04459 0.1073,-0.06512 0.10739,-0.1652 1.2e-4,-0.155586 0.18296,-0.408553 0.54951,-0.760362 0.22841,-0.219218 0.32961,-0.293057 0.4938,-0.360295 0.11359,-0.04651 0.26154,-0.113397 0.32878,-0.148632 0.24231,-0.126971 0.47898,-0.06141 0.52437,0.145252 0.044,0.200154 -0.0615,0.299114 -0.40548,0.380572 -0.23209,0.05496 -0.35983,0.115738 -0.49065,0.233455 -0.0665,0.05981 -0.17756,0.155727 -0.24686,0.213151 -0.0767,0.06357 -0.164,0.182302 -0.22312,0.303564 -0.0971,0.19916 -0.0971,0.19916 -0.0367,0.332278 0.073,0.160797 0.0767,0.2595 0.0155,0.406119 -0.0767,0.183521 -0.0592,0.40381 0.0509,0.642693 0.0534,0.115931 0.11378,0.210784 0.1341,0.210784 0.0203,0 0.0616,0.02722 0.0917,0.06048 0.0741,0.0819 0.0404,0.203374 -0.0727,0.261871 -0.0486,0.02514 -0.0966,0.06698 -0.10654,0.09297 -0.0375,0.09767 -0.21303,0.170826 -0.41021,0.170947 -0.16268,9.2e-5 -0.2104,-0.01404 -0.33825,-0.100188 z"
         style="fill:#d0d0d0;fill-opacity:1;stroke:url(#linearGradient1410);stroke-width:0.0838729;stroke-miterlimit:4;stroke-dasharray:none" />
      <path
         id="path1769"
         d="m 165.08269,82.605109 c 0.11154,-0.03271 0.29307,-0.07544 0.4034,-0.09496 0.11033,-0.01951 0.21168,-0.04619 0.22522,-0.05927 0.0136,-0.01308 0.002,-0.08493 -0.0254,-0.159656 -0.11883,-0.322914 -0.14103,-0.436682 -0.16793,-0.860627 -0.0298,-0.469369 -0.0647,-0.643731 -0.15476,-0.77207 -0.24144,-0.344193 -0.40819,-0.914662 -0.44793,-1.532401 -0.005,-0.07049 -0.0169,-0.142207 -0.0275,-0.159375 -0.0106,-0.01717 -0.0393,-0.126152 -0.0637,-0.242188 -0.14781,-0.702766 -0.21417,-0.905381 -0.29652,-0.905381 -0.014,0 -0.11313,0.06934 -0.2202,0.154083 -0.10707,0.08475 -0.25716,0.183893 -0.33355,0.220327 -0.0764,0.03643 -0.19014,0.106496 -0.25279,0.155693 -0.15138,0.118864 -0.62432,0.358992 -0.78959,0.400896 -0.13193,0.03345 -0.13193,0.03345 -0.0331,0.207054 0.20412,0.358547 0.2942,0.548497 0.3311,0.698263 0.0433,0.175823 0.31791,0.740036 0.40595,0.834151 0.0845,0.09031 0.21494,0.32581 0.32439,0.585521 0.0944,0.22409 0.14916,0.321775 0.29396,0.52466 0.3804,0.533008 0.51316,0.764019 0.54172,0.94266 0.0107,0.06715 0.0341,0.122095 0.052,0.122095 0.0178,0 0.1237,-0.02676 0.23524,-0.05947 z"
         style="fill:#a3a3a3;fill-opacity:1;stroke-width:0.0308624" />
      <path
         id="path1771"
         d="m 173.82862,84.863531 c -0.0303,-0.08501 -0.0757,-0.132134 -0.10808,-0.112137 -0.0163,0.01009 0.002,0.05159 0.0397,0.09225 0.0828,0.08814 0.0938,0.09134 0.0683,0.01989 z"
         style="fill:#a3a3a3;fill-opacity:1;stroke-width:0.0308624" />
      <path
         id="path1773"
         d="m 164.55436,85.301528 c 0.14395,-0.09694 0.22189,-0.200395 0.22189,-0.294506 0,-0.04085 -0.27857,-0.157501 -0.32947,-0.137968 -0.0225,0.0086 -0.0409,0.04112 -0.0409,0.07221 0,0.03109 -0.0123,0.06972 -0.0273,0.08584 -0.015,0.01613 -0.0369,0.109175 -0.0485,0.206777 -0.0257,0.215792 -0.005,0.222057 0.22432,0.06765 z"
         style="fill:url(#linearGradient1845);fill-opacity:1;stroke:url(#linearGradient1416);stroke-width:0.0838729;stroke-miterlimit:4;stroke-dasharray:none" />
      <path
         id="path1775"
         d="m 162.83192,86.71276 c 0,-0.05429 0.47305,-0.313823 0.572,-0.313823 0.0605,0 0.0595,-0.0039 -0.0488,-0.178038 -0.1291,-0.207682 -0.18292,-0.433992 -0.18336,-0.770982 -1.4e-4,-0.157012 -0.0112,-0.285476 -0.0244,-0.285476 -0.0132,0 -0.11392,0.08309 -0.22375,0.184638 -0.10983,0.10155 -0.2106,0.184879 -0.22393,0.185174 -0.0133,2.92e-4 -0.0533,0.0665 -0.0888,0.147133 -0.0462,0.104881 -0.069,0.235803 -0.08,0.460086 -0.0154,0.313489 -0.0154,0.313489 0.10306,0.455221 0.10767,0.128802 0.19799,0.181753 0.19799,0.116067 z"
         style="fill:url(#linearGradient1847);fill-opacity:1;stroke:url(#linearGradient1418);stroke-width:0.0838729;stroke-miterlimit:4;stroke-dasharray:none" />
      <path
         id="path1777"
         d="m 171.55659,86.596439 c -0.15986,-0.08667 -0.16128,-0.27546 -0.003,-0.347748 0.042,-0.01913 0.0738,-0.0602 0.0738,-0.09533 0,-0.05347 0.01,-0.05734 0.072,-0.02889 0.0831,0.03785 0.17485,0.178641 0.17485,0.268252 0,0.06193 -0.15667,0.254174 -0.20527,0.251882 -0.0144,-7.29e-4 -0.0652,-0.02235 -0.11276,-0.04816 z"
         style="fill:#a3a3a3;fill-opacity:1;stroke-width:0.0308624" />
      <path
         id="path1779"
         d="m 170.06607,86.787804 c -0.24678,-0.246787 -0.0452,-0.602757 0.29853,-0.527255 0.11397,0.02503 0.21351,0.171669 0.21368,0.314774 9e-5,0.06709 -0.0309,0.134559 -0.0957,0.208321 -0.13163,0.149919 -0.2694,0.151294 -0.41654,0.0042 z"
         style="fill:#a3a3a3;fill-opacity:1;stroke-width:0.0308624" />
      <path
         id="path1781"
         d="m 172.10288,87.95967 c -0.12116,-0.05274 -0.22847,-0.201543 -0.22758,-0.315569 0.002,-0.257585 0.42691,-0.427204 0.60062,-0.239768 0.0611,0.06597 0.0718,0.105024 0.0626,0.229189 -0.0139,0.186749 -0.0544,0.264176 -0.16945,0.323648 -0.10869,0.05621 -0.14205,0.05652 -0.26615,0.0025 z"
         style="fill:#a3a3a3;fill-opacity:1;stroke-width:0.0308624" />
      <path
         id="path1783"
         d="m 170.68531,87.962233 c -0.14065,-0.06379 -0.21017,-0.243346 -0.1938,-0.500491 0.0118,-0.185981 0.0231,-0.215708 0.11224,-0.295315 0.0695,-0.06213 0.13164,-0.08852 0.20836,-0.08852 0.0601,0 0.17105,-0.01555 0.24653,-0.03456 0.23179,-0.05836 0.38486,0.0444 0.43079,0.289216 0.0328,0.174909 -0.0679,0.361438 -0.27964,0.517851 -0.19882,0.146875 -0.36778,0.182895 -0.52448,0.111814 z"
         style="fill:#a3a3a3;fill-opacity:1;stroke-width:0.0308624" />
      <path
         id="path1785"
         d="m 169.7451,88.225806 c -0.10229,-0.01578 -0.14699,-0.05582 -0.21829,-0.195583 -0.1027,-0.20131 -0.0686,-0.366658 0.0865,-0.419364 0.20577,-0.06993 0.44044,0.108873 0.44044,0.335596 0,0.06771 -0.0136,0.148513 -0.0302,0.17956 -0.0362,0.06765 -0.17177,0.116237 -0.27842,0.09979 z"
         style="fill:#a3a3a3;fill-opacity:1;stroke-width:0.0308624" />
      <path
         id="path1787"
         d="m 170.98754,88.944039 c -0.12087,-0.05082 -0.16225,-0.128177 -0.16225,-0.303307 0,-0.170222 0.0994,-0.266601 0.27506,-0.266601 0.14062,0 0.2434,0.07021 0.29957,0.20464 0.0368,0.08814 0.0371,0.119272 0.002,0.204288 -0.0231,0.05517 -0.0614,0.116357 -0.0853,0.13598 -0.0691,0.05682 -0.22477,0.06867 -0.32862,0.025 z"
         style="fill:#a3a3a3;fill-opacity:1;stroke-width:0.0308624" />
      <path
         id="path1789"
         d="m 171.13391,89.978347 c 0.23707,-0.03666 0.53342,-0.153231 0.77792,-0.305989 0.0969,-0.06051 0.28435,-0.178238 0.41665,-0.261611 0.1323,-0.08337 0.34953,-0.256975 0.48274,-0.38578 0.23865,-0.230754 0.65321,-0.720606 0.80403,-0.950041 0.16352,-0.248752 0.36596,-0.939812 0.34126,-1.164881 -0.0239,-0.217369 -0.0601,-0.354007 -0.14321,-0.539339 -0.0748,-0.166859 -0.14734,-0.257012 -0.40536,-0.503653 -0.23812,-0.22763 -0.34043,-0.304998 -0.42228,-0.319327 -0.0594,-0.0104 -0.19829,-0.04474 -0.30862,-0.07631 -0.84236,-0.24105 -2.26959,-0.237146 -2.58889,0.0071 -0.0405,0.03096 -0.10993,0.05635 -0.15432,0.05641 -0.0444,6.3e-5 -0.12931,0.0299 -0.18873,0.06631 -0.0594,0.03641 -0.21217,0.118864 -0.33948,0.18324 -0.24476,0.123767 -0.40384,0.259769 -0.59513,0.508781 -0.48696,0.633898 -0.64368,1.018811 -0.64215,1.577143 7.3e-4,0.250576 0.0131,0.316728 0.0971,0.518636 0.15342,0.368549 0.60047,0.865211 1.11522,1.238997 0.42376,0.307707 1.12407,0.447647 1.75322,0.350338 z"
         style="fill:#a3a3a3;fill-opacity:1;stroke-width:0.0308624" />
      <path
         id="path1791"
         d="m 164.67698,82.857471 c -0.0731,-0.08376 -0.11676,-0.181813 -0.11676,-0.261975 0,-0.07757 -0.0775,-0.204503 -0.35345,-0.579026 -0.0938,-0.127307 -0.18314,-0.259815 -0.19853,-0.294462 -0.0154,-0.03464 -0.0516,-0.0826 -0.0805,-0.106572 -0.048,-0.03981 -0.16931,-0.278263 -0.25923,-0.509408 -0.0198,-0.05092 -0.13291,-0.245356 -0.25133,-0.432073 -0.24475,-0.385887 -0.37629,-0.649379 -0.46222,-0.925874 -0.0564,-0.181607 -0.15229,-0.382348 -0.25967,-0.543859 -0.0522,-0.07846 -0.11875,-0.182617 -0.14797,-0.231468 -0.0292,-0.04885 -0.0662,-0.109652 -0.0821,-0.135115 -0.14254,-0.227722 -0.13429,-0.34017 0.0399,-0.544387 0.0559,-0.06553 0.12492,-0.164367 0.15336,-0.219626 0.0587,-0.114034 0.19789,-0.20768 0.46659,-0.313899 0.10185,-0.04026 0.20601,-0.08963 0.23147,-0.10971 0.0456,-0.036 0.54404,-0.201187 0.60701,-0.201187 0.0178,0 0.098,-0.0577 0.17807,-0.128214 0.11669,-0.102717 0.17497,-0.13103 0.29304,-0.142374 0.14794,-0.01422 0.27983,0.02809 0.27983,0.08976 0,0.01817 0.0347,0.0743 0.0772,0.124731 0.0849,0.100885 0.0975,0.17771 0.0388,0.236385 -0.0261,0.02613 -0.028,0.04527 -0.006,0.06018 0.0501,0.03365 0.16063,0.343478 0.1836,0.514447 0.0113,0.0842 0.0461,0.223085 0.0772,0.308625 0.0312,0.08554 0.064,0.231908 0.073,0.325267 0.0218,0.226602 0.0994,0.597521 0.1398,0.668303 0.0179,0.03133 0.0674,0.160005 0.11007,0.285943 0.0426,0.125938 0.0961,0.250932 0.11871,0.277762 0.072,0.08538 0.16773,0.351656 0.18942,0.527152 0.0115,0.09336 0.0401,0.225295 0.0635,0.293193 0.0234,0.0679 0.0576,0.317882 0.0762,0.555523 0.0324,0.41609 0.0497,0.502411 0.14275,0.7145 0.0632,0.144116 0.0535,0.223181 -0.0322,0.262246 -0.12915,0.05885 -0.21882,0.01274 -0.2627,-0.135054 -0.0215,-0.07252 -0.05,-0.145743 -0.0632,-0.162718 -0.0387,-0.04958 -0.0594,-0.189273 -0.0934,-0.632679 -0.0313,-0.407491 -0.0952,-0.747216 -0.15384,-0.817862 -0.0616,-0.07417 -0.26764,-0.499901 -0.30625,-0.632674 -0.0222,-0.07638 -0.0531,-0.174138 -0.0687,-0.217233 -0.0156,-0.04309 -0.0487,-0.251413 -0.0735,-0.462936 -0.0632,-0.537736 -0.0763,-0.62297 -0.107,-0.693209 -0.0394,-0.09026 -0.12351,-0.455502 -0.12351,-0.536568 0,-0.06259 -0.14143,-0.343011 -0.17299,-0.343011 -0.0219,0 -0.3312,0.221065 -0.43452,0.3106 -0.0541,0.04684 -0.12994,0.09522 -0.16866,0.107504 -0.0387,0.01229 -0.19337,0.103785 -0.3437,0.203328 -0.15032,0.09954 -0.28361,0.180992 -0.29619,0.180992 -0.0126,0 -0.0811,0.02814 -0.15231,0.06253 -0.0712,0.03439 -0.1713,0.07091 -0.22248,0.08114 -0.0512,0.01024 -0.10078,0.03113 -0.11024,0.04644 -0.009,0.0153 0.0281,0.107255 0.0835,0.204334 0.18714,0.327868 0.27167,0.506194 0.32196,0.679161 0.0489,0.168142 0.14531,0.407572 0.20153,0.500377 0.0154,0.02546 0.0553,0.09652 0.0886,0.157906 0.0333,0.06139 0.0936,0.15166 0.13399,0.200605 0.10727,0.130028 0.39247,0.693453 0.39247,0.775343 0,0.0188 0.033,0.07344 0.0733,0.121422 0.0961,0.114334 0.50914,0.732333 0.59794,0.894614 0.0382,0.0698 0.0694,0.156706 0.0694,0.193131 0,0.03643 0.0206,0.115649 0.0459,0.17605 0.0738,0.176574 -0.0321,0.30327 -0.14516,0.173675 z"
         style="fill:#494949;fill-opacity:1;stroke-width:0.0308624" />
      <path
         id="path1793"
         d="m 186.08505,84.77975 c -0.0919,-0.09188 -0.0945,-0.138774 -0.0125,-0.226741 0.0783,-0.08409 0.16537,-0.08615 0.2457,-0.0058 0.0761,0.07609 0.079,0.160748 0.008,0.221995 -0.1014,0.08709 -0.16172,0.08973 -0.24089,0.01056 z"
         style="fill:#494949;fill-opacity:1;stroke-width:0.0308624" />
      <path
         id="path1795"
         d="m 184.98935,85.026437 c -0.10817,-0.05884 -0.15327,-0.169297 -0.12333,-0.302063 0.0322,-0.142821 0.0506,-0.168974 0.15768,-0.224352 0.16218,-0.08386 0.37564,0.02249 0.41625,0.207394 0.0555,0.252789 -0.21728,0.445926 -0.4506,0.319021 z"
         style="fill:#494949;fill-opacity:1;stroke-width:0.0308624" />
      <path
         id="path1797"
         d="m 186.40062,85.743192 c -0.11598,-0.09395 -0.10719,-0.249548 0.0194,-0.343671 0.0864,-0.06421 0.0864,-0.06421 0.19999,-0.003 0.15339,0.08257 0.1949,0.2017 0.11006,0.315839 -0.0832,0.111936 -0.21424,0.124219 -0.32947,0.03088 z"
         style="fill:#494949;fill-opacity:1;stroke-width:0.0308624" />
      <path
         id="path1799"
         d="m 185.53299,85.903487 c -0.077,-0.01356 -0.149,-0.05318 -0.19599,-0.107809 -0.0668,-0.07765 -0.0731,-0.109197 -0.0629,-0.312406 0.01,-0.194701 0.0227,-0.237292 0.0926,-0.30727 0.0642,-0.06418 0.10947,-0.08067 0.21568,-0.07854 0.0739,0.0015 0.15316,-0.0089 0.17604,-0.023 0.0674,-0.04163 0.24997,0.03254 0.31908,0.129601 0.0707,0.09922 0.0843,0.280956 0.0289,0.384522 -0.0446,0.08329 -0.27588,0.273724 -0.37558,0.309222 -0.0419,0.01491 -0.13093,0.01747 -0.19787,0.0057 z"
         style="fill:#494949;fill-opacity:1;stroke-width:0.0308624" />
      <path
         id="path1801"
         d="m 184.54224,85.921971 c -0.0935,-0.09352 -0.0998,-0.239666 -0.014,-0.325459 0.1493,-0.1493 0.40122,-0.04938 0.40122,0.159134 0,0.113593 -0.12286,0.242078 -0.23147,0.242078 -0.044,0 -0.11405,-0.03409 -0.15572,-0.07575 z"
         style="fill:#494949;fill-opacity:1;stroke-width:0.0308624" />
      <path
         id="path1803"
         d="m 185.6055,86.600366 c -0.0676,-0.135402 -0.0679,-0.140399 -0.014,-0.259885 0.0791,-0.175365 0.22444,-0.197016 0.33277,-0.04956 0.0553,0.07528 0.0214,0.227988 -0.0746,0.336512 -0.054,0.06105 -0.11557,0.110994 -0.13672,0.110994 -0.0211,0 -0.0695,-0.06213 -0.1074,-0.138057 z"
         style="fill:#494949;fill-opacity:1;stroke-width:0.0308624" />
      <path
         id="path1805"
         d="m 186.01249,87.267345 c 0.19664,-0.06772 0.34224,-0.14342 0.49092,-0.255233 0.0594,-0.04467 0.1552,-0.105117 0.21288,-0.134314 0.0577,-0.0292 0.22433,-0.17319 0.37035,-0.319983 0.55492,-0.557867 0.75587,-0.916029 0.79146,-1.410648 0.0181,-0.251216 0.013,-0.291121 -0.0565,-0.445665 -0.0947,-0.210542 -0.46977,-0.590453 -0.61723,-0.625161 -0.0546,-0.01283 -0.17556,-0.0448 -0.26892,-0.07101 -0.47883,-0.134475 -1.22926,-0.182177 -1.60485,-0.10201 -0.0764,0.0163 -0.1923,0.04123 -0.25759,0.0554 -0.0653,0.01417 -0.15557,0.05257 -0.20061,0.08535 -0.045,0.03278 -0.18905,0.112203 -0.32002,0.176499 -0.23554,0.115628 -0.4458,0.312059 -0.54785,0.511799 -0.0217,0.04244 -0.0717,0.111876 -0.11112,0.154311 -0.10332,0.111169 -0.22128,0.395928 -0.26282,0.634469 -0.0665,0.382097 0.0146,0.668705 0.28668,1.012941 0.0684,0.08651 0.15396,0.177393 0.19016,0.201964 0.0362,0.02457 0.14222,0.113698 0.23558,0.198059 0.0933,0.08436 0.21835,0.172927 0.27776,0.196813 0.0594,0.02389 0.15663,0.06578 0.21604,0.0931 0.17285,0.07949 0.27144,0.09427 0.65099,0.09762 0.27496,0.0024 0.39644,-0.01015 0.52466,-0.0543 z"
         style="fill:#494949;fill-opacity:1;stroke-width:0.0308624" />
      <path
         id="path1807"
         d="m 185.0683,89.003307 c -0.62014,-0.143073 -0.66992,-0.159772 -1.14622,-0.384504 -0.45395,-0.214186 -0.91011,-0.586139 -1.15167,-0.939077 -0.28615,-0.418072 -0.34084,-0.504324 -0.34084,-0.537497 0,-0.01975 -0.0261,-0.08744 -0.0579,-0.15042 -0.0319,-0.06298 -0.0748,-0.19089 -0.0954,-0.284249 -0.0206,-0.09336 -0.0571,-0.26001 -0.081,-0.370337 -0.065,-0.300025 -0.0566,-0.866241 0.017,-1.144701 0.10836,-0.410047 0.15316,-0.527381 0.36945,-0.967407 0.24328,-0.494944 0.37645,-0.675032 0.74945,-1.013439 0.21264,-0.192927 0.34561,-0.28105 0.67912,-0.450088 0.40376,-0.204639 0.42542,-0.211663 0.81992,-0.265836 0.53609,-0.07362 1.02856,-0.05417 1.53435,0.0606 0.65116,0.147752 1.06287,0.384901 1.682,0.96885 0.0934,0.08805 0.22253,0.196689 0.28704,0.241411 0.35197,0.243978 0.66369,0.740719 0.69286,1.104099 0.0242,0.30153 -0.0417,0.745336 -0.16569,1.116683 -0.12565,0.376166 -0.40107,0.937625 -0.55508,1.131591 -0.18261,0.229986 -0.63773,0.732342 -0.95644,1.05571 -0.29192,0.296201 -0.33428,0.326984 -0.67323,0.489316 -0.46452,0.222466 -0.80616,0.316819 -1.22191,0.337454 -0.17823,0.0088 -0.35183,0.0097 -0.38578,0.0019 z"
         style="fill:#a3a3a3;fill-opacity:1;stroke-width:0.0308624" />
      <path
         id="path1809"
         d="m 171.59685,86.593078 c -0.086,-0.03162 -0.15431,-0.110741 -0.15431,-0.178711 0,-0.0707 0.087,-0.169743 0.14903,-0.169743 0.0199,0 0.0361,-0.02778 0.0361,-0.06173 0,-0.03395 0.0198,-0.06172 0.0441,-0.06172 0.0665,0 0.17198,0.15147 0.17198,0.2469 0,0.09138 -0.10551,0.248402 -0.16427,0.244462 -0.02,-0.0013 -0.0572,-0.01009 -0.0826,-0.01946 z"
         style="fill:#494949;fill-opacity:1;stroke-width:0.0308624" />
      <path
         id="path1811"
         d="m 170.12506,86.8325 c -0.0661,-0.04032 -0.10909,-0.0985 -0.13099,-0.177343 -0.0451,-0.162441 -0.044,-0.168126 0.0557,-0.287547 0.22628,-0.271039 0.62234,-0.0058 0.48438,0.324389 -0.0408,0.09763 -0.18004,0.200881 -0.27056,0.20062 -0.0221,-6.1e-5 -0.0844,-0.02712 -0.13852,-0.06012 z"
         style="fill:#494949;fill-opacity:1;stroke-width:0.0308624" />
      <path
         id="path1813"
         d="m 170.62714,87.90348 c -0.1277,-0.113474 -0.16525,-0.433639 -0.0761,-0.648843 0.0478,-0.115292 0.19067,-0.187698 0.3219,-0.163081 0.058,0.01088 0.11032,0.0054 0.12152,-0.0127 0.0108,-0.0175 0.0824,-0.03181 0.15909,-0.03181 0.11296,0 0.15656,0.01713 0.22965,0.09021 0.0737,0.07371 0.0902,0.116332 0.0902,0.233001 0,0.197909 -0.0648,0.304597 -0.28249,0.464822 -0.1608,0.118377 -0.2083,0.137836 -0.33643,0.137836 -0.11099,0 -0.16921,-0.01778 -0.22734,-0.06944 z"
         style="fill:#494949;fill-opacity:1;stroke-width:0.0308624" />
      <path
         id="path1815"
         d="m 172.11758,87.951894 c -0.0965,-0.03881 -0.24297,-0.212902 -0.24297,-0.288699 0,-0.07597 0.0984,-0.213474 0.19579,-0.273682 0.24496,-0.151394 0.45232,-0.04328 0.45232,0.235825 0,0.271323 -0.18061,0.416906 -0.40514,0.326556 z"
         style="fill:#494949;fill-opacity:1;stroke-width:0.0308624" />
      <path
         id="path1817"
         d="m 169.62837,88.16581 c -0.0963,-0.08407 -0.17096,-0.317062 -0.13335,-0.415977 0.071,-0.186791 0.26907,-0.197269 0.4429,-0.02343 0.11497,0.114962 0.12258,0.133175 0.10633,0.254299 -0.0109,0.08128 -0.0428,0.150952 -0.0846,0.184793 -0.0859,0.06959 -0.25179,0.06975 -0.3313,2.92e-4 z"
         style="fill:#494949;fill-opacity:1;stroke-width:0.0308624" />
      <path
         id="path1819"
         d="m 170.9155,88.870304 c -0.0668,-0.06679 -0.0902,-0.119493 -0.0902,-0.202978 0,-0.139028 0.1375,-0.293195 0.26149,-0.293195 0.10483,0 0.25263,0.07695 0.29312,0.152603 0.0653,0.12202 0.0233,0.30799 -0.089,0.394225 -0.0269,0.02068 -0.10212,0.03804 -0.16707,0.03858 -0.0902,7.28e-4 -0.13945,-0.02036 -0.20833,-0.08923 z"
         style="fill:#494949;fill-opacity:1;stroke-width:0.0308624" />
      <path
         id="path1821"
         d="m 171.39625,89.933914 c 0.22379,-0.07611 0.54406,-0.241964 0.73179,-0.378969 0.0898,-0.06552 0.23266,-0.158961 0.31753,-0.207657 0.20016,-0.114845 0.54629,-0.450221 0.8451,-0.818844 0.42332,-0.522228 0.50488,-0.681368 0.6248,-1.219066 0.0778,-0.348943 0.0594,-0.589774 -0.0685,-0.897095 -0.0814,-0.195623 -0.133,-0.261803 -0.42847,-0.549941 -0.23121,-0.225472 -0.35821,-0.327561 -0.4075,-0.327576 -0.0394,-1.3e-5 -0.19661,-0.03402 -0.34937,-0.07557 -0.44843,-0.121975 -0.95899,-0.181737 -1.54313,-0.180629 -0.45152,8.74e-4 -0.55692,0.01062 -0.75613,0.06996 -0.1273,0.03793 -0.2564,0.09113 -0.28687,0.118227 -0.0305,0.02709 -0.093,0.05204 -0.13888,0.05543 -0.0459,0.0034 -0.24678,0.09218 -0.44638,0.19729 -0.31571,0.166255 -0.38997,0.221168 -0.57096,0.422176 -0.11443,0.127086 -0.23391,0.282099 -0.26553,0.344476 -0.0316,0.06238 -0.0898,0.148135 -0.12923,0.190569 -0.12019,0.129262 -0.28983,0.527917 -0.34216,0.8041 -0.0983,0.518965 0.0149,0.967546 0.34241,1.356272 0.59523,0.706527 1.09505,1.037185 1.74502,1.154422 0.18879,0.03405 0.97524,-0.0061 1.12648,-0.05758 z"
         style="fill:#494949;fill-opacity:1;stroke-width:0.0308624" />
      <path
         id="path1823"
         d="m 170.9492,91.708396 c -0.0555,-0.134117 -0.25365,-0.300749 -0.40645,-0.341896 -0.15967,-0.04299 -0.41906,9.3e-5 -0.54641,0.09079 -0.0841,0.05987 -0.0841,0.05987 -0.28339,-0.02938 -0.12385,-0.05546 -0.2519,-0.08932 -0.33819,-0.08944 -0.14825,-1.46e-4 -0.35909,0.07986 -0.42725,0.162242 -0.0377,0.04556 -0.0613,0.04015 -0.2593,-0.05958 -0.55612,-0.280056 -1.01082,-0.629003 -1.26183,-0.968353 -0.0816,-0.110333 -0.21997,-0.295652 -0.30746,-0.411821 -0.16284,-0.216227 -0.43607,-0.783437 -0.47062,-0.976989 -0.0106,-0.05941 -0.0408,-0.219122 -0.0671,-0.354917 -0.10499,-0.542164 -0.11528,-0.653814 -0.0966,-1.049324 0.0177,-0.374674 0.029,-0.430808 0.17087,-0.848716 0.0836,-0.246128 0.20568,-0.578531 0.27132,-0.738671 0.098,-0.239006 0.13351,-0.294957 0.19844,-0.312321 0.0435,-0.01164 0.11592,-0.04528 0.16093,-0.07477 0.0927,-0.06076 0.26775,-0.34766 0.26775,-0.438916 0,-0.04946 0.0167,-0.05789 0.0924,-0.04678 0.17031,0.025 0.30242,-0.02305 0.47997,-0.174557 0.0953,-0.08136 0.24513,-0.17326 0.33287,-0.204225 0.27804,-0.09813 0.42632,-0.227338 0.48824,-0.425434 0.0271,-0.08665 0.0568,-0.120599 0.11617,-0.132747 0.0439,-0.009 0.17699,-0.04246 0.29581,-0.07439 0.11883,-0.03194 0.25776,-0.05098 0.30874,-0.04233 0.051,0.0087 0.21595,0.0022 0.36659,-0.01435 0.22884,-0.02515 0.29623,-0.04584 0.40972,-0.125836 0.0747,-0.05266 0.15457,-0.09574 0.17749,-0.09574 0.0229,0 0.11625,0.0335 0.20742,0.07444 0.0912,0.04094 0.25603,0.08371 0.36636,0.09504 0.11033,0.01133 0.25552,0.03468 0.32263,0.05189 0.0863,0.02214 0.17234,0.02062 0.29406,-0.0052 0.17129,-0.03635 0.17289,-0.036 0.36981,0.08131 0.16712,0.09956 0.23094,0.119688 0.41183,0.129908 0.12764,0.0072 0.26396,-0.0044 0.33766,-0.0287 0.11475,-0.03787 0.1272,-0.03616 0.17369,0.02388 0.31915,0.412119 0.31383,0.407195 0.46254,0.428695 0.16659,0.02409 0.20317,0.04884 0.30082,0.203534 0.0397,0.06291 0.1184,0.1363 0.17486,0.163089 0.47112,0.223562 0.88406,0.68901 1.09044,1.229099 0.0804,0.210376 0.0823,0.230582 0.0631,0.651942 -0.0222,0.486948 -0.0678,0.715239 -0.21946,1.098974 -0.0572,0.14461 -0.11364,0.314806 -0.12553,0.378215 -0.0119,0.06341 -0.061,0.169675 -0.10918,0.236147 -0.0481,0.06647 -0.139,0.229589 -0.2019,0.362484 -0.13657,0.288583 -0.43647,0.682645 -0.7061,0.927825 -0.10764,0.09787 -0.25101,0.261277 -0.3186,0.363123 -0.13521,0.203722 -0.61252,0.680806 -0.85472,0.854315 -0.0849,0.0608 -0.2932,0.179074 -0.46294,0.262826 -0.29576,0.145928 -0.3149,0.151057 -0.45914,0.123046 -0.12628,-0.02452 -0.17598,-0.01887 -0.30863,0.03511 -0.087,0.03538 -0.19977,0.07322 -0.25069,0.08408 -0.0509,0.01085 -0.11506,0.02575 -0.14253,0.03309 -0.0331,0.0089 -0.0629,-0.01802 -0.0885,-0.07969 z"
         style="fill:#a3a3a3;fill-opacity:1;stroke-width:0.0308624" />
      <path
         id="path1825"
         d="m 170.97219,91.682391 c -0.18876,-0.322075 -0.60676,-0.435045 -0.94923,-0.25654 -0.13,0.06777 -0.13,0.06777 -0.27337,-0.002 -0.0917,-0.04461 -0.21908,-0.07415 -0.35335,-0.08192 -0.19204,-0.01111 -0.22317,-0.004 -0.36416,0.08368 -0.15418,0.09584 -0.15418,0.09584 -0.34296,5.83e-4 -0.52741,-0.266238 -0.98632,-0.621392 -1.23188,-0.953374 -0.0816,-0.110333 -0.21997,-0.295651 -0.30745,-0.41182 -0.16641,-0.220958 -0.44042,-0.791539 -0.46919,-0.976989 -0.009,-0.05941 -0.0392,-0.219122 -0.0666,-0.354917 -0.10528,-0.52193 -0.1174,-0.650938 -0.0986,-1.049324 0.0177,-0.374675 0.0289,-0.430809 0.17088,-0.848716 0.0836,-0.246128 0.20598,-0.579442 0.272,-0.740699 0.10071,-0.246035 0.13214,-0.294934 0.19536,-0.304014 0.0414,-0.006 0.11292,-0.03757 0.15883,-0.07027 0.0904,-0.06436 0.27224,-0.358019 0.27224,-0.439616 0,-0.03979 0.0324,-0.05025 0.15585,-0.05025 0.17894,0 0.30267,-0.05525 0.44704,-0.199618 0.0586,-0.05861 0.19451,-0.137067 0.3214,-0.185556 0.26251,-0.100308 0.41279,-0.232397 0.46583,-0.409435 0.0346,-0.115578 0.0515,-0.132259 0.15002,-0.148158 0.0611,-0.0099 0.16656,-0.03655 0.23445,-0.05932 0.0679,-0.02277 0.30163,-0.04994 0.5194,-0.06037 0.40366,-0.01933 0.56689,-0.06466 0.66694,-0.185212 0.0539,-0.06493 0.10334,-0.06127 0.25771,0.01909 0.11548,0.06012 0.35687,0.111068 0.79455,0.167721 0.077,0.01 0.19434,0.0031 0.26083,-0.01526 0.11022,-0.03043 0.13327,-0.0255 0.26126,0.05593 0.21635,0.137636 0.44654,0.193111 0.66663,0.16066 0.10098,-0.01489 0.20624,-0.03675 0.23392,-0.04859 0.0366,-0.01566 0.0693,0.0092 0.12005,0.0913 0.0383,0.06205 0.10251,0.1456 0.14256,0.185659 0.0401,0.04006 0.0728,0.08513 0.0728,0.100148 0,0.03931 0.14297,0.09875 0.24064,0.100053 0.0964,0.0013 0.23705,0.108425 0.26549,0.202271 0.0108,0.03547 0.0575,0.08399 0.10392,0.107819 0.56077,0.287966 0.9533,0.718113 1.16676,1.278594 0.0792,0.20786 0.0814,0.231337 0.0633,0.649148 -0.0123,0.282692 -0.0397,0.508147 -0.0788,0.64811 -0.10422,0.372888 -0.32806,0.988479 -0.39332,1.08168 -0.0345,0.04932 -0.12191,0.207728 -0.19416,0.35201 -0.1506,0.300745 -0.48754,0.738925 -0.71402,0.928542 -0.0852,0.0713 -0.21158,0.214446 -0.28092,0.3181 -0.13332,0.199292 -0.57172,0.643238 -0.83789,0.848487 -0.0873,0.06735 -0.29447,0.19298 -0.46029,0.279182 -0.29797,0.1549 -0.30394,0.156504 -0.51064,0.137293 -0.17635,-0.01639 -0.22904,-0.0093 -0.33606,0.04532 -0.0698,0.03561 -0.18029,0.0732 -0.2455,0.08352 -0.10772,0.01705 -0.12348,0.01038 -0.17227,-0.07288 z m 0.54298,-1.776226 c 0.24904,-0.09553 0.42636,-0.188171 0.57548,-0.300657 0.0594,-0.04482 0.20524,-0.140134 0.32406,-0.211815 0.259,-0.156247 0.58431,-0.466627 0.90687,-0.865249 0.42418,-0.524184 0.50491,-0.681727 0.62475,-1.219066 0.0778,-0.348943 0.0594,-0.589774 -0.0685,-0.897095 -0.0814,-0.195623 -0.133,-0.261803 -0.42848,-0.549941 -0.23121,-0.225472 -0.35821,-0.327561 -0.4075,-0.327576 -0.0394,-1.3e-5 -0.1966,-0.03402 -0.34937,-0.07557 -0.45884,-0.124806 -0.95925,-0.183017 -1.55856,-0.181306 -0.57229,0.0016 -0.83822,0.04441 -1.03753,0.1669 -0.0529,0.03253 -0.12258,0.05914 -0.15479,0.05914 -0.0322,0 -0.12084,0.03473 -0.19696,0.07718 -0.0761,0.04245 -0.22296,0.118052 -0.3263,0.168009 -0.32478,0.157003 -0.47234,0.30183 -0.81932,0.804137 -0.28081,0.406511 -0.37119,0.615796 -0.43026,0.9963 -0.0979,0.630928 0.086,1.070776 0.69678,1.666096 0.38674,0.376966 0.76009,0.608459 1.17277,0.727176 0.1964,0.0565 0.28011,0.06214 0.78699,0.05305 0.43043,-0.0077 0.49956,-0.01671 0.68988,-0.08971 z m -0.5688,-1.035861 c -0.15471,-0.154706 -0.10912,-0.380777 0.0937,-0.4648 0.17799,-0.07373 0.37158,0.07919 0.37158,0.293525 0,0.116128 -0.15441,0.26149 -0.27777,0.26149 -0.0664,0 -0.12597,-0.02864 -0.18754,-0.09022 z m -1.2822,-0.70518 c -0.0988,-0.08046 -0.1767,-0.314265 -0.13829,-0.415291 0.0333,-0.08768 0.11837,-0.147262 0.21016,-0.147262 0.0971,0 0.28259,0.177501 0.30383,0.290739 0.0464,0.247079 -0.19319,0.420386 -0.3757,0.271814 z M 170.658,87.90348 c -0.0747,-0.06641 -0.13382,-0.24501 -0.12508,-0.378065 0.002,-0.03395 0.006,-0.0997 0.009,-0.14611 0.003,-0.04641 0.0458,-0.129741 0.0953,-0.185175 0.0763,-0.08536 0.1129,-0.101541 0.23919,-0.105699 0.082,-0.0027 0.18706,-0.01469 0.23342,-0.02664 0.12948,-0.03337 0.23558,0.0078 0.30232,0.117247 0.13212,0.216677 0.0421,0.467817 -0.23905,0.667303 -0.21495,0.152483 -0.38674,0.171525 -0.51546,0.05714 z m 1.44808,0.03512 c -0.034,-0.01658 -0.0941,-0.07966 -0.13366,-0.14017 -0.0859,-0.131371 -0.0718,-0.227192 0.05,-0.340788 0.16203,-0.151031 0.31058,-0.171004 0.42451,-0.05708 0.0608,0.0608 0.0757,0.107103 0.0757,0.234517 0,0.137811 -0.0126,0.170581 -0.0958,0.248303 -0.099,0.09251 -0.20654,0.111016 -0.32079,0.05521 z m -1.95058,-1.106514 c -0.13006,-0.07909 -0.193,-0.283324 -0.12371,-0.401369 0.0635,-0.108112 0.22085,-0.185331 0.32238,-0.158176 0.11078,0.02962 0.19858,0.156697 0.20244,0.292985 0.002,0.08717 -0.0177,0.133436 -0.0878,0.201611 -0.12468,0.121207 -0.19636,0.136066 -0.3133,0.06495 z m 1.47221,-0.240737 c -0.0841,-0.02776 -0.15431,-0.108336 -0.15431,-0.176977 0,-0.0707 0.087,-0.169743 0.14903,-0.169743 0.0199,0 0.0361,-0.02778 0.0361,-0.06173 0,-0.03395 0.0129,-0.06172 0.0286,-0.06172 0.0509,0 0.15655,0.160427 0.15655,0.237659 0,0.144559 -0.11326,0.266453 -0.21604,0.232511 z m 13.47146,2.411379 c -0.55889,-0.123645 -0.64288,-0.15176 -1.14191,-0.382207 -0.44575,-0.205844 -0.91352,-0.586531 -1.15599,-0.94079 -0.28615,-0.418072 -0.34084,-0.504324 -0.34084,-0.537497 0,-0.01975 -0.0261,-0.08744 -0.0579,-0.15042 -0.0319,-0.06298 -0.0748,-0.19089 -0.0954,-0.284249 -0.0206,-0.09336 -0.057,-0.26001 -0.081,-0.370337 -0.065,-0.300025 -0.0566,-0.866241 0.017,-1.144701 0.1073,-0.406033 0.15234,-0.525275 0.35849,-0.948968 0.23934,-0.491905 0.37351,-0.674671 0.74286,-1.011938 0.22463,-0.205127 0.34896,-0.288479 0.68244,-0.457526 0.3764,-0.190806 0.43687,-0.211481 0.78631,-0.268824 0.49675,-0.08152 1.06341,-0.06411 1.53691,0.0472 0.69534,0.163459 0.95479,0.315015 1.72728,1.008977 0.0934,0.08387 0.24613,0.212319 0.33949,0.285446 0.20492,0.160509 0.36925,0.369335 0.50252,0.638579 0.0967,0.195389 0.0992,0.21064 0.0956,0.586388 -0.004,0.419495 -0.0353,0.578753 -0.2058,1.049322 -0.20579,0.567822 -0.52052,1.082426 -0.82735,1.352804 -0.0835,0.07355 -0.22917,0.236576 -0.32376,0.362269 -0.17728,0.235547 -0.45984,0.511147 -0.67632,0.659653 -0.19374,0.132915 -0.71637,0.358805 -0.98759,0.426858 -0.23984,0.06018 -0.77025,0.107568 -0.89501,0.07997 z m 1.08018,-1.782265 c 0.11882,-0.04869 0.25076,-0.119244 0.29319,-0.156782 0.0424,-0.03754 0.14611,-0.107576 0.23037,-0.155638 0.0843,-0.04806 0.27176,-0.206575 0.41664,-0.352252 0.55279,-0.555806 0.75387,-0.914599 0.78942,-1.408619 0.0181,-0.251216 0.013,-0.291121 -0.0565,-0.445665 -0.0507,-0.11269 -0.15032,-0.242059 -0.29645,-0.384898 -0.20927,-0.204551 -0.23313,-0.218606 -0.48409,-0.285229 -0.14519,-0.03854 -0.45682,-0.09859 -0.69253,-0.133449 -0.36992,-0.0547 -0.47625,-0.05912 -0.77724,-0.03227 -0.36526,0.03258 -0.4842,0.06088 -0.68819,0.163741 -0.56497,0.284881 -0.60339,0.309352 -0.75413,0.480351 -0.0855,0.09698 -0.15563,0.187336 -0.15587,0.200795 -2.9e-4,0.01346 -0.0539,0.09679 -0.11915,0.185174 -0.18152,0.245738 -0.26256,0.501693 -0.26502,0.837034 -0.002,0.228403 0.0112,0.31104 0.0696,0.44559 0.0764,0.176109 0.30221,0.473392 0.43455,0.572086 0.0441,0.03288 0.14267,0.11922 0.21906,0.191862 0.13307,0.126554 0.26485,0.197603 0.60181,0.32447 0.12899,0.04856 0.22523,0.0568 0.58639,0.05016 0.39493,-0.0073 0.45064,-0.01554 0.64811,-0.09646 z m -0.54588,-0.619355 c -0.0653,-0.134397 -0.0655,-0.139923 -0.0115,-0.259639 0.0316,-0.07011 0.083,-0.12959 0.12029,-0.139353 0.0868,-0.0227 0.20568,0.09064 0.20568,0.196124 0,0.08199 -0.1663,0.340188 -0.21911,0.340188 -0.0157,0 -0.0586,-0.06179 -0.0953,-0.13732 z m -1.00294,-0.634744 c -0.13759,-0.05485 -0.17789,-0.263414 -0.0715,-0.369847 0.13221,-0.132205 0.37035,-0.03518 0.37035,0.150893 0,0.16106 -0.15651,0.275713 -0.29889,0.218954 z m 0.75613,-0.154761 c -0.0905,-0.09045 -0.0932,-0.101253 -0.0817,-0.327388 0.0153,-0.302306 0.074,-0.362675 0.38098,-0.391337 0.25327,-0.02365 0.36052,0.02609 0.42984,0.199326 0.0778,0.194392 -0.005,0.36244 -0.25878,0.525021 -0.18942,0.121375 -0.34517,0.119514 -0.47031,-0.0056 z m 1.04731,-0.07212 c -0.19384,-0.166708 -0.0235,-0.45172 0.20193,-0.337861 0.15747,0.07954 0.1722,0.299584 0.0253,0.378191 -0.0902,0.0483 -0.13304,0.04071 -0.22726,-0.04033 z m -1.41376,-0.713044 c -0.10817,-0.05884 -0.15327,-0.169297 -0.12333,-0.302063 0.0331,-0.146791 0.0553,-0.176764 0.16525,-0.222984 0.17494,-0.07356 0.33664,0.03017 0.37428,0.240111 0.0189,0.105576 0.0105,0.127691 -0.0856,0.223752 -0.11499,0.114988 -0.20206,0.131101 -0.33061,0.06118 z m 1.0628,-0.280041 c -0.0438,-0.06684 -0.0455,-0.08978 -0.0112,-0.1538 0.0732,-0.136813 0.22686,-0.131739 0.28047,0.0093 0.0689,0.181194 -0.16352,0.305942 -0.26927,0.144539 z m -21.37516,-1.888925 c -0.0731,-0.08376 -0.11677,-0.181813 -0.11677,-0.261975 0,-0.07757 -0.0775,-0.204503 -0.35344,-0.579026 -0.0938,-0.127307 -0.18315,-0.259815 -0.19854,-0.294462 -0.0154,-0.03464 -0.0516,-0.0826 -0.0805,-0.106572 -0.048,-0.03981 -0.16931,-0.278263 -0.25922,-0.509408 -0.0198,-0.05092 -0.13291,-0.245356 -0.25134,-0.432073 -0.24475,-0.385887 -0.37629,-0.649379 -0.46222,-0.925874 -0.0564,-0.181556 -0.15321,-0.388503 -0.23096,-0.493798 -0.0376,-0.05092 -0.0999,-0.155084 -0.13855,-0.231469 -0.0386,-0.07638 -0.0892,-0.149987 -0.11247,-0.16356 -0.0232,-0.01358 -0.0423,-0.04324 -0.0423,-0.06591 0,-0.02268 -0.0196,-0.07901 -0.0435,-0.125177 -0.0563,-0.108453 -0.0235,-0.204527 0.1354,-0.3968 0.0665,-0.08046 0.12901,-0.171868 0.13893,-0.203121 0.0242,-0.07626 0.20391,-0.196073 0.44819,-0.298811 0.11034,-0.0464 0.22144,-0.100397 0.2469,-0.119986 0.0255,-0.01959 0.17824,-0.0748 0.33949,-0.122695 0.21369,-0.06346 0.34214,-0.123492 0.47371,-0.221378 0.13647,-0.101533 0.20801,-0.134189 0.29319,-0.133832 0.13021,5.83e-4 0.15148,0.01288 0.23883,0.13841 0.12463,0.17912 0.14106,0.226409 0.10322,0.297117 -0.022,0.04111 -0.024,0.07283 -0.005,0.08487 0.0424,0.02741 0.15255,0.362736 0.17652,0.537348 0.0112,0.08128 0.0423,0.199327 0.0692,0.262331 0.0269,0.06301 0.0595,0.21177 0.0724,0.33059 0.0292,0.268546 0.0988,0.597219 0.14389,0.678975 0.0187,0.03395 0.0649,0.15894 0.10257,0.277761 0.0377,0.11882 0.0939,0.248438 0.12479,0.288039 0.0766,0.09808 0.1719,0.360852 0.19812,0.546459 0.0119,0.0842 0.0403,0.215596 0.063,0.29198 0.0228,0.07639 0.0571,0.333315 0.0763,0.570956 0.0267,0.329474 0.0533,0.478237 0.11233,0.626475 0.0858,0.215486 0.0796,0.270846 -0.035,0.314427 -0.1127,0.04284 -0.15716,0.01349 -0.20045,-0.132376 -0.0211,-0.07125 -0.0493,-0.14344 -0.0626,-0.160415 -0.0387,-0.04958 -0.0594,-0.189273 -0.0934,-0.632679 -0.0313,-0.407491 -0.0952,-0.747216 -0.15385,-0.817862 -0.0616,-0.07417 -0.26763,-0.499901 -0.30624,-0.632674 -0.0222,-0.07638 -0.0531,-0.174138 -0.0687,-0.217233 -0.0156,-0.04309 -0.0486,-0.251413 -0.0735,-0.462936 -0.0632,-0.537736 -0.0763,-0.62297 -0.107,-0.693209 -0.0394,-0.09026 -0.12351,-0.455502 -0.12351,-0.536568 0,-0.107314 -0.15047,-0.343011 -0.21897,-0.343011 -0.0323,0 -0.0588,0.01353 -0.0588,0.03007 0,0.01654 -0.0388,0.05012 -0.0862,0.07463 -0.0474,0.02451 -0.15356,0.100246 -0.23592,0.168308 -0.0824,0.06806 -0.18388,0.132314 -0.2256,0.142785 -0.0417,0.01047 -0.14735,0.07056 -0.23473,0.133539 -0.28151,0.202881 -0.52076,0.323891 -0.7657,0.387295 -0.14389,0.03724 -0.14389,0.03724 -0.0926,0.147619 0.0282,0.06071 0.0679,0.130261 0.0882,0.154563 0.0672,0.08057 0.22861,0.429552 0.30245,0.654031 0.0719,0.218582 0.16715,0.440826 0.24029,0.560649 0.0207,0.03391 0.0945,0.151956 0.16394,0.26233 0.0695,0.110374 0.15235,0.242346 0.1842,0.293267 0.0318,0.05092 0.1033,0.202606 0.15878,0.337073 0.0555,0.134465 0.12695,0.273347 0.15883,0.308624 0.0484,0.05353 0.19432,0.265941 0.32862,0.478282 0.017,0.02684 0.0393,0.05574 0.0496,0.06423 0.0555,0.04563 0.27443,0.479528 0.27443,0.543846 0,0.04146 0.02,0.123347 0.0445,0.181967 0.0392,0.09382 0.0389,0.112179 -0.002,0.153321 -0.0578,0.05776 -0.0538,0.05802 -0.11073,-0.0073 z"
         style="fill:#333333;fill-opacity:1;stroke-width:0.0308624" />
      <path
         style="fill:#ccffee;fill-opacity:1;stroke:#005a8a;stroke-width:0.115608;stroke-linecap:butt;stroke-linejoin:miter;stroke-miterlimit:4;stroke-dasharray:none;stroke-opacity:1"
         d="m 186.24256,76.040563 c 0.39825,0.295479 0.79646,0.590924 1.19462,0.886332"
         id="path1827"
         inkscape:path-effect="#path-effect1833"
         inkscape:original-d="m 186.24256,76.040563 c 0.39825,0.295483 0.79646,0.590926 1.19462,0.886332" />
      <path
         style="fill:#ccffee;fill-opacity:1;stroke:#005a8a;stroke-width:0.115608;stroke-linecap:butt;stroke-linejoin:miter;stroke-miterlimit:4;stroke-dasharray:none;stroke-opacity:1"
         d="m 186.31,76.507813 c 0.23929,0.176659 0.47854,0.35328 0.71774,0.529873"
         id="path1829"
         inkscape:path-effect="#path-effect1835"
         inkscape:original-d="m 186.31,76.507813 c 0.23929,0.176663 0.47853,0.353288 0.71774,0.529873" />
    </g>
  </g>
</svg>
